<?xml version="1.0" encoding="utf-8"?>
<!-- Generator: Adobe Illustrator 19.2.0, SVG Export Plug-In . SVG Version: 6.00 Build 0)  -->
<svg version="1.1" id="Layer_1" xmlns="http://www.w3.org/2000/svg" xmlns:xlink="http://www.w3.org/1999/xlink" x="0px" y="0px"
	 viewBox="0 0 120.5 120.5" style="enable-background:new 0 0 120.5 120.5;" xml:space="preserve">
<style type="text/css">
	.st0{fill:none;stroke:#FF5500;stroke-miterlimit:10;}
	.st1{fill:#FF5500;}
	.st2{fill:#449988;}
	.st3{fill:#FFBB00;}
	.st4{fill:#002233;}
	.st5{clip-path:url(#SVGID_2_);}
	.st6{clip-path:url(#SVGID_4_);fill:#FF5500;}
	.st7{fill:#004256;}
	.st8{fill:#FFFFFF;}
	.st9{fill:none;stroke:#FFFFFF;stroke-width:3;stroke-linecap:round;stroke-miterlimit:10;}
	.st10{clip-path:url(#SVGID_6_);}
	.st11{clip-path:url(#SVGID_8_);fill:#FF5500;}
	.st12{fill:none;stroke:#FFFFFF;stroke-width:3;stroke-miterlimit:10;}
	.st13{fill:none;stroke:#FFFFFF;stroke-width:6;stroke-linecap:round;stroke-miterlimit:10;}
	.st14{enable-background:new    ;}
	.st15{clip-path:url(#SVGID_10_);}
	.st16{clip-path:url(#SVGID_12_);}
	.st17{clip-path:url(#SVGID_14_);enable-background:new    ;}
	.st18{clip-path:url(#SVGID_16_);}
	.st19{clip-path:url(#SVGID_18_);enable-background:new    ;}
	.st20{clip-path:url(#SVGID_20_);}
	.st21{clip-path:url(#SVGID_22_);}
	.st22{clip-path:url(#SVGID_26_);enable-background:new    ;}
	.st23{clip-path:url(#SVGID_28_);}
	.st24{clip-path:url(#SVGID_30_);}
	.st25{clip-path:url(#SVGID_34_);}
	.st26{clip-path:url(#SVGID_36_);fill:#003687;}
	.st27{clip-path:url(#SVGID_38_);}
	.st28{clip-path:url(#SVGID_40_);}
	.st29{clip-path:url(#SVGID_42_);enable-background:new    ;}
	.st30{clip-path:url(#SVGID_44_);}
	.st31{clip-path:url(#SVGID_46_);enable-background:new    ;}
	.st32{clip-path:url(#SVGID_48_);}
	.st33{clip-path:url(#SVGID_50_);}
	.st34{clip-path:url(#SVGID_54_);enable-background:new    ;}
	.st35{clip-path:url(#SVGID_56_);}
	.st36{clip-path:url(#SVGID_58_);}
	.st37{clip-path:url(#SVGID_62_);}
	.st38{clip-path:url(#SVGID_64_);fill:#003687;}
	.st39{clip-path:url(#SVGID_66_);}
	.st40{clip-path:url(#SVGID_68_);}
	.st41{clip-path:url(#SVGID_70_);enable-background:new    ;}
	.st42{clip-path:url(#SVGID_72_);}
	.st43{clip-path:url(#SVGID_74_);fill:#4A4A4A;}
	.st44{clip-path:url(#SVGID_76_);enable-background:new    ;}
	.st45{clip-path:url(#SVGID_78_);}
	.st46{clip-path:url(#SVGID_80_);}
	.st47{clip-path:url(#SVGID_84_);enable-background:new    ;}
	.st48{clip-path:url(#SVGID_86_);}
	.st49{clip-path:url(#SVGID_88_);}
	.st50{clip-path:url(#SVGID_92_);}
	.st51{clip-path:url(#SVGID_94_);}
	.st52{clip-path:url(#SVGID_96_);fill-rule:evenodd;clip-rule:evenodd;fill:#003344;}
	.st53{clip-path:url(#SVGID_98_);}
	.st54{clip-path:url(#SVGID_100_);fill:none;stroke:#979797;stroke-width:2;stroke-miterlimit:10;}
	.st55{clip-path:url(#SVGID_102_);}
	.st56{clip-path:url(#SVGID_104_);}
	.st57{clip-path:url(#SVGID_106_);enable-background:new    ;}
	.st58{clip-path:url(#SVGID_108_);}
	.st59{clip-path:url(#SVGID_110_);fill:#4A4A4A;}
	.st60{clip-path:url(#SVGID_112_);enable-background:new    ;}
	.st61{clip-path:url(#SVGID_114_);}
	.st62{clip-path:url(#SVGID_116_);}
	.st63{clip-path:url(#SVGID_120_);enable-background:new    ;}
	.st64{clip-path:url(#SVGID_122_);}
	.st65{clip-path:url(#SVGID_124_);}
	.st66{clip-path:url(#SVGID_128_);}
	.st67{clip-path:url(#SVGID_130_);}
	.st68{clip-path:url(#SVGID_132_);fill-rule:evenodd;clip-rule:evenodd;fill:#003344;}
	.st69{clip-path:url(#SVGID_134_);}
	.st70{clip-path:url(#SVGID_136_);fill:none;stroke:#979797;stroke-width:2;stroke-miterlimit:10;}
	.st71{clip-path:url(#SVGID_138_);}
	.st72{clip-path:url(#SVGID_140_);}
	.st73{clip-path:url(#SVGID_142_);}
	.st74{clip-path:url(#SVGID_144_);}
	.st75{clip-path:url(#SVGID_146_);}
	.st76{clip-path:url(#SVGID_148_);}
	.st77{clip-path:url(#SVGID_150_);}
	.st78{clip-path:url(#SVGID_152_);}
	.st79{clip-path:url(#SVGID_154_);}
	.st80{clip-path:url(#SVGID_156_);}
	.st81{clip-path:url(#SVGID_158_);}
	.st82{clip-path:url(#SVGID_160_);}
	.st83{clip-path:url(#SVGID_162_);}
	.st84{clip-path:url(#SVGID_164_);}
	.st85{clip-path:url(#SVGID_166_);}
	.st86{clip-path:url(#SVGID_168_);}
	.st87{clip-path:url(#SVGID_170_);}
	.st88{clip-path:url(#SVGID_172_);}
	.st89{clip-path:url(#SVGID_174_);}
	.st90{clip-path:url(#SVGID_176_);}
	.st91{clip-path:url(#SVGID_178_);}
	.st92{clip-path:url(#SVGID_180_);}
	.st93{clip-path:url(#SVGID_182_);}
	.st94{clip-path:url(#SVGID_184_);}
	.st95{clip-path:url(#SVGID_186_);}
	.st96{clip-path:url(#SVGID_188_);}
	.st97{clip-path:url(#SVGID_190_);}
	.st98{clip-path:url(#SVGID_192_);}
	.st99{clip-path:url(#SVGID_194_);}
	.st100{clip-path:url(#SVGID_196_);}
	.st101{clip-path:url(#SVGID_198_);}
	.st102{clip-path:url(#SVGID_200_);}
	.st103{clip-path:url(#SVGID_202_);}
	.st104{clip-path:url(#SVGID_204_);}
	.st105{clip-path:url(#SVGID_206_);}
	.st106{clip-path:url(#SVGID_208_);}
	.st107{clip-path:url(#SVGID_210_);}
	.st108{clip-path:url(#SVGID_212_);}
	.st109{clip-path:url(#SVGID_214_);}
	.st110{clip-path:url(#SVGID_216_);}
	.st111{fill-rule:evenodd;clip-rule:evenodd;}
	.st112{clip-path:url(#SVGID_218_);}
	.st113{clip-path:url(#SVGID_220_);}
	.st114{clip-path:url(#SVGID_222_);}
	.st115{clip-path:url(#SVGID_224_);}
	.st116{clip-path:url(#SVGID_226_);}
	.st117{clip-path:url(#SVGID_228_);}
	.st118{clip-path:url(#SVGID_230_);}
	.st119{clip-path:url(#SVGID_232_);}
	.st120{clip-path:url(#SVGID_234_);}
	.st121{clip-path:url(#SVGID_236_);}
	.st122{clip-path:url(#SVGID_238_);}
	.st123{clip-path:url(#SVGID_240_);}
	.st124{clip-path:url(#SVGID_242_);}
	.st125{clip-path:url(#SVGID_246_);}
	.st126{clip-path:url(#SVGID_250_);}
	.st127{fill-rule:evenodd;clip-rule:evenodd;fill:#FFFFFF;}
	.st128{clip-path:url(#SVGID_254_);}
	.st129{clip-path:url(#SVGID_256_);fill:#FFFFFF;}
	.st130{clip-path:url(#SVGID_258_);}
	.st131{clip-path:url(#SVGID_260_);fill:#FFFFFF;}
	.st132{clip-path:url(#SVGID_262_);}
	.st133{clip-path:url(#SVGID_264_);fill:#FFFFFF;}
	.st134{clip-path:url(#SVGID_266_);}
	.st135{clip-path:url(#SVGID_270_);}
	.st136{clip-path:url(#SVGID_274_);}
</style>
<g>
	<g>
		<defs>
			<path id="SVGID_153_" d="M638.5-176h-35c-2.1,0-4,1.5-4.2,3.5c-0.2,2.1,1.6,3.9,3.9,3.9h1.2c0.4,0,0.7,0.3,0.7,0.7v26.7
				c0,2,1.6,3.8,3.7,3.9c2.2,0.1,4.2-1.5,4.2-3.6v-18c0-0.4,0.4-0.8,0.9-0.8h13.7c0.4,0,0.9,0.4,0.9,0.8v17.7c0,2,1.6,3.8,3.7,3.9
				c2.2,0.1,4.2-1.5,4.2-3.6v-27c0-0.4,0.3-0.7,0.7-0.7h1c2.1,0,4-1.5,4.2-3.5C642.6-174.3,640.8-176,638.5-176z"/>
		</defs>
		<use xlink:href="#SVGID_153_"  style="overflow:visible;fill-rule:evenodd;clip-rule:evenodd;"/>
		<clipPath id="SVGID_2_">
			<use xlink:href="#SVGID_153_"  style="overflow:visible;"/>
		</clipPath>
		<g class="st5">
			<defs>
				<rect id="SVGID_155_" x="28.6" y="-233" width="926.8" height="418.5"/>
			</defs>
			<use xlink:href="#SVGID_155_"  style="overflow:visible;"/>
			<clipPath id="SVGID_4_">
				<use xlink:href="#SVGID_155_"  style="overflow:visible;"/>
			</clipPath>
		</g>
	</g>
	<g>
		<defs>
			<path id="SVGID_157_" d="M657.7-204.6c0,4.2-3.6,7.6-8,7.6c-4.4,0-8-3.4-8-7.6c0-4.2,3.6-7.6,8-7.6
				C654.1-212.2,657.7-208.8,657.7-204.6"/>
		</defs>
		<use xlink:href="#SVGID_157_"  style="overflow:visible;fill-rule:evenodd;clip-rule:evenodd;"/>
		<clipPath id="SVGID_6_">
			<use xlink:href="#SVGID_157_"  style="overflow:visible;"/>
		</clipPath>
		<g class="st10">
			<defs>
				<rect id="SVGID_159_" x="28.6" y="-236.4" width="926.8" height="418.5"/>
			</defs>
			<use xlink:href="#SVGID_159_"  style="overflow:visible;"/>
			<clipPath id="SVGID_8_">
				<use xlink:href="#SVGID_159_"  style="overflow:visible;"/>
			</clipPath>
		</g>
	</g>
	<g>
		<defs>
			<path id="SVGID_161_" d="M674.6-186.1c-2.1,0.1-3.7,2-3.7,3.9v7.9c0,0.1-0.2,0.1-0.3,0l-3.6-14.5c-1-4.2-5.4-7.3-10-6.5
				c-3,0.6-5.4,2.4-6.4,4.9c-0.2,0.3-0.3,0.6-0.7,0.6c-3.1,0.8-7.4,0.6-11.8-4.2l0.3-0.4c0.4-0.6,0.3-1.4-0.4-1.8
				c-0.6-0.4-1.5-0.3-1.9,0.4l-0.3,0.6c-1-0.1-2.1,0-3,0.6c-1.6,1.1-2.1,3.1-1.2,4.8c0.2,0.1,0.2,0.4,0,0.6l-3.1,4.4
				c-0.4,0.6-0.3,1.4,0.4,1.8c0.3,0.1,0.6,0.3,0.7,0.3c0.4,0,0.9-0.1,1.2-0.6l2.5-3.5c0.2-0.3,0.7-0.3,1-0.1
				c4.3,3.8,8.8,5.2,12.8,5.2c1,0,2.1-0.1,3.1-0.3c0.4-0.1,0.9,0.1,0.9,0.6l2.4,9.7c0.2,0.6-0.3,1-0.9,1h-8.5c-2.2,0-4,1.7-4,3.8v26
				c0,2,1.6,3.8,3.7,3.9c2.2,0.1,4.2-1.5,4.2-3.6v-21.8c0-0.4,0.4-0.8,0.9-0.8h11.3c0.7,0.1,3.4,0.3,4,0.1c0.2,0,0.2,0,0.3-0.1h1.5
				c2.2,0,4-1.7,4-3.8v-0.1c0.3-0.6,0.6-1.3,0.9-2v6.7c0,0.4-0.4,0.8-0.9,0.8h-13.6c-2.2,0-4,1.7-4,3.8v16.7c0,2,1.6,3.8,3.7,3.9
				c2.2,0.1,4.2-1.5,4.2-3.6v-12.4c0-0.4,0.4-0.8,0.9-0.8h8.8c0.4,0,0.9,0.4,0.9,0.8v12.2c0,2,1.6,3.8,3.7,3.9
				c2.2,0.1,4.2-1.5,4.2-3.6v-41.4C678.7-184.6,676.8-186.2,674.6-186.1z"/>
		</defs>
		<use xlink:href="#SVGID_161_"  style="overflow:visible;fill-rule:evenodd;clip-rule:evenodd;"/>
		<clipPath id="SVGID_10_">
			<use xlink:href="#SVGID_161_"  style="overflow:visible;"/>
		</clipPath>
		<g class="st15">
			<defs>
				<rect id="SVGID_163_" x="28.6" y="-237.1" width="926.8" height="418.5"/>
			</defs>
			<use xlink:href="#SVGID_163_"  style="overflow:visible;"/>
			<clipPath id="SVGID_12_">
				<use xlink:href="#SVGID_163_"  style="overflow:visible;"/>
			</clipPath>
		</g>
	</g>
	<g>
		<defs>
			<path id="SVGID_165_" d="M603.8-215.7c0,4.8-4.1,8.7-9.2,8.7c-5.1,0-9.2-3.9-9.2-8.7c0-4.8,4.1-8.7,9.2-8.7
				C599.7-224.4,603.8-220.5,603.8-215.7"/>
		</defs>
		<use xlink:href="#SVGID_165_"  style="overflow:visible;fill-rule:evenodd;clip-rule:evenodd;"/>
		<clipPath id="SVGID_14_">
			<use xlink:href="#SVGID_165_"  style="overflow:visible;"/>
		</clipPath>
		<g style="clip-path:url(#SVGID_14_);">
			<defs>
				<rect id="SVGID_167_" x="28.6" y="-233" width="926.8" height="418.5"/>
			</defs>
			<use xlink:href="#SVGID_167_"  style="overflow:visible;"/>
			<clipPath id="SVGID_16_">
				<use xlink:href="#SVGID_167_"  style="overflow:visible;"/>
			</clipPath>
		</g>
	</g>
	<g>
		<defs>
			<path id="SVGID_169_" d="M624.8-207.9h-13.1c-0.4,0-0.9,0.3-0.9,0.8v11c0,0,0,0-0.2,0c-6.7,3.2-11.5,1.7-14.3-0.6
				c0-0.1-0.2-0.1-0.2-0.3c-0.7-3.5-3.4-6.3-7.3-7.2c-5.2-1.1-10.4,2-11.6,6.9l-4,16.4c-0.9,3.5,3.7,39,3.7,39
				c0,2.2,1.8,4.4,4.2,4.5c2.5,0.1,4.8-1.8,4.8-4.2c0,0,5.5-32.2,6.3-35.1l2.5-10.5c0.2-0.3,0.4-0.6,0.7-0.4c2.4,1,5.1,1.7,8,1.7
				c3.4,0,7.4-0.8,11.6-2.9c0.3-0.1,0.6-0.4,0.9-0.6h8.6c0.4,0,0.9-0.3,0.9-0.8v-17C625.7-207.6,625.3-207.9,624.8-207.9z"/>
		</defs>
		<use xlink:href="#SVGID_169_"  style="overflow:visible;fill-rule:evenodd;clip-rule:evenodd;"/>
		<clipPath id="SVGID_18_">
			<use xlink:href="#SVGID_169_"  style="overflow:visible;"/>
		</clipPath>
		<g style="clip-path:url(#SVGID_18_);">
			<defs>
				<rect id="SVGID_171_" x="28.6" y="-233" width="926.8" height="418.5"/>
			</defs>
			<use xlink:href="#SVGID_171_"  style="overflow:visible;"/>
			<clipPath id="SVGID_20_">
				<use xlink:href="#SVGID_171_"  style="overflow:visible;"/>
			</clipPath>
		</g>
	</g>
</g>
<g>
	<g>
		<defs>
			<path id="SVGID_173_" d="M213.2-230.4h-35c-2.1,0-4,1.5-4.2,3.5c-0.2,2.1,1.6,3.9,3.9,3.9h1.2c0.4,0,0.7,0.3,0.7,0.7v26.7
				c0,2,1.6,3.8,3.7,3.9c2.2,0.1,4.2-1.5,4.2-3.6v-18c0-0.4,0.4-0.8,0.9-0.8h13.7c0.4,0,0.9,0.4,0.9,0.8v17.7c0,2,1.6,3.8,3.7,3.9
				c2.2,0.1,4.2-1.5,4.2-3.6v-27c0-0.4,0.3-0.7,0.7-0.7h1c2.1,0,4-1.5,4.2-3.5C217.2-228.7,215.5-230.4,213.2-230.4z"/>
		</defs>
		<use xlink:href="#SVGID_173_"  style="overflow:visible;fill-rule:evenodd;clip-rule:evenodd;"/>
		<clipPath id="SVGID_22_">
			<use xlink:href="#SVGID_173_"  style="overflow:visible;"/>
		</clipPath>
		<g class="st21">
			<defs>
				<rect id="SVGID_175_" x="-396.7" y="-287.4" width="926.8" height="418.5"/>
			</defs>
			<use xlink:href="#SVGID_175_"  style="overflow:visible;"/>
			<clipPath id="SVGID_24_">
				<use xlink:href="#SVGID_175_"  style="overflow:visible;"/>
			</clipPath>
		</g>
	</g>
	<g>
		<defs>
			<path id="SVGID_177_" d="M232.4-259c0,4.2-3.6,7.6-8,7.6c-4.4,0-8-3.4-8-7.6c0-4.2,3.6-7.6,8-7.6
				C228.8-266.6,232.4-263.2,232.4-259"/>
		</defs>
		<use xlink:href="#SVGID_177_"  style="overflow:visible;fill-rule:evenodd;clip-rule:evenodd;"/>
		<clipPath id="SVGID_26_">
			<use xlink:href="#SVGID_177_"  style="overflow:visible;"/>
		</clipPath>
		<g style="clip-path:url(#SVGID_26_);">
			<defs>
				<rect id="SVGID_179_" x="-396.7" y="-290.8" width="926.8" height="418.5"/>
			</defs>
			<use xlink:href="#SVGID_179_"  style="overflow:visible;"/>
			<clipPath id="SVGID_28_">
				<use xlink:href="#SVGID_179_"  style="overflow:visible;"/>
			</clipPath>
		</g>
	</g>
	<g>
		<defs>
			<path id="SVGID_181_" d="M249.3-240.5c-2.1,0.1-3.7,2-3.7,3.9v7.9c0,0.1-0.2,0.1-0.3,0l-3.6-14.5c-1-4.2-5.4-7.3-10-6.5
				c-3,0.6-5.4,2.4-6.4,4.9c-0.2,0.3-0.3,0.6-0.7,0.6c-3.1,0.8-7.4,0.6-11.8-4.2l0.3-0.4c0.4-0.6,0.3-1.4-0.4-1.8
				c-0.6-0.4-1.5-0.3-1.9,0.4l-0.3,0.6c-1-0.1-2.1,0-3,0.6c-1.6,1.1-2.1,3.1-1.2,4.8c0.2,0.1,0.2,0.4,0,0.6l-3.1,4.4
				c-0.4,0.6-0.3,1.4,0.4,1.8c0.3,0.1,0.6,0.3,0.7,0.3c0.4,0,0.9-0.1,1.2-0.6l2.5-3.5c0.2-0.3,0.7-0.3,1-0.1
				c4.3,3.8,8.8,5.2,12.8,5.2c1,0,2.1-0.1,3.1-0.3c0.4-0.1,0.9,0.1,0.9,0.6l2.4,9.7c0.2,0.6-0.3,1-0.9,1h-8.5c-2.2,0-4,1.7-4,3.8v26
				c0,2,1.6,3.8,3.7,3.9c2.2,0.1,4.2-1.5,4.2-3.6V-217c0-0.4,0.4-0.8,0.9-0.8H235c0.7,0.1,3.4,0.3,4,0.1c0.2,0,0.2,0,0.3-0.1h1.5
				c2.2,0,4-1.7,4-3.8v-0.1c0.3-0.6,0.6-1.3,0.9-2v6.7c0,0.4-0.4,0.8-0.9,0.8h-13.6c-2.2,0-4,1.7-4,3.8v16.7c0,2,1.6,3.8,3.7,3.9
				c2.2,0.1,4.2-1.5,4.2-3.6v-12.4c0-0.4,0.4-0.8,0.9-0.8h8.8c0.4,0,0.9,0.4,0.9,0.8v12.2c0,2,1.6,3.8,3.7,3.9
				c2.2,0.1,4.2-1.5,4.2-3.6v-41.4C253.4-238.9,251.5-240.6,249.3-240.5z"/>
		</defs>
		<use xlink:href="#SVGID_181_"  style="overflow:visible;fill-rule:evenodd;clip-rule:evenodd;"/>
		<clipPath id="SVGID_30_">
			<use xlink:href="#SVGID_181_"  style="overflow:visible;"/>
		</clipPath>
		<g class="st24">
			<defs>
				<rect id="SVGID_183_" x="-396.7" y="-291.5" width="926.8" height="418.5"/>
			</defs>
			<use xlink:href="#SVGID_183_"  style="overflow:visible;"/>
			<clipPath id="SVGID_32_">
				<use xlink:href="#SVGID_183_"  style="overflow:visible;"/>
			</clipPath>
		</g>
	</g>
	<g>
		<defs>
			<path id="SVGID_185_" d="M178.5-270.1c0,4.8-4.1,8.7-9.2,8.7c-5.1,0-9.2-3.9-9.2-8.7c0-4.8,4.1-8.7,9.2-8.7
				C174.4-278.8,178.5-274.9,178.5-270.1"/>
		</defs>
		<use xlink:href="#SVGID_185_"  style="overflow:visible;fill-rule:evenodd;clip-rule:evenodd;"/>
		<clipPath id="SVGID_34_">
			<use xlink:href="#SVGID_185_"  style="overflow:visible;"/>
		</clipPath>
		<g class="st25">
			<defs>
				<rect id="SVGID_187_" x="-396.7" y="-287.4" width="926.8" height="418.5"/>
			</defs>
			<use xlink:href="#SVGID_187_"  style="overflow:visible;"/>
			<clipPath id="SVGID_36_">
				<use xlink:href="#SVGID_187_"  style="overflow:visible;"/>
			</clipPath>
		</g>
	</g>
	<g>
		<defs>
			<path id="SVGID_189_" d="M199.5-262.2h-13.1c-0.4,0-0.9,0.3-0.9,0.8v11c0,0,0,0-0.2,0c-6.7,3.2-11.5,1.7-14.3-0.6
				c0-0.1-0.2-0.1-0.2-0.3c-0.7-3.5-3.4-6.3-7.3-7.2c-5.2-1.1-10.4,2-11.6,6.9l-4,16.4c-0.9,3.5,3.7,39,3.7,39
				c0,2.2,1.8,4.4,4.2,4.5c2.5,0.1,4.8-1.8,4.8-4.2c0,0,5.5-32.2,6.3-35.1l2.5-10.5c0.2-0.3,0.4-0.6,0.7-0.4c2.4,1,5.1,1.7,8,1.7
				c3.4,0,7.4-0.8,11.6-2.9c0.3-0.1,0.6-0.4,0.9-0.6h8.6c0.4,0,0.9-0.3,0.9-0.8v-17C200.4-262,200-262.2,199.5-262.2z"/>
		</defs>
		<use xlink:href="#SVGID_189_"  style="overflow:visible;fill-rule:evenodd;clip-rule:evenodd;"/>
		<clipPath id="SVGID_38_">
			<use xlink:href="#SVGID_189_"  style="overflow:visible;"/>
		</clipPath>
		<g class="st27">
			<defs>
				<rect id="SVGID_191_" x="-396.7" y="-287.4" width="926.8" height="418.5"/>
			</defs>
			<use xlink:href="#SVGID_191_"  style="overflow:visible;"/>
			<clipPath id="SVGID_40_">
				<use xlink:href="#SVGID_191_"  style="overflow:visible;"/>
			</clipPath>
		</g>
	</g>
</g>
<g>
	<g>
		<path d="M93.7,43.7c-0.6,0.5-0.9,1.2-0.9,1.9c0,0.6,0.2,1.2,0.7,1.8c0.3,0.3,1.5,0.7,1.5,1.2V43C95,43.2,94.1,43.4,93.7,43.7z"/>
		<path d="M97,52.2v6.2c1-0.2,0.9-0.4,1.3-0.8c0.7-0.6,1.1-1.4,1.1-2.3c0-0.7-0.2-1.3-0.7-1.9C98.4,53.1,98,52.7,97,52.2z"/>
		<path d="M95.5,29.6c-13.8,0-25,11.2-25,25c0,6.1,2.2,11.7,5.8,16l16.9,0l9.4,0c3.3,0,6.2,1.4,8.3,3.6c5.8-4.6,9.5-11.7,9.5-19.6
			C120.4,40.8,109.2,29.6,95.5,29.6z M100.2,59.3c-0.9,0.8-2.2,1.4-3.2,1.6v3.7h-2v-3.6c-1-0.1-1.9-0.3-2.8-0.7
			c-1.1-0.5-1.9-1.2-2.6-2l1.6-1.8c1.2,1.3,2.9,2,3.9,2.1v-7.2c-1-0.9-2.9-1.7-3.6-2.6c-0.7-0.9-1-1.9-1-3c0-1.5,0.5-2.7,1.5-3.7
			c0.8-0.8,2-1.2,3-1.4v-6.2h2v6.2c2,0.2,3.3,1,5,2.5l-1.7,1.7c-1.1-1-2.3-1.6-3.3-1.8v6.4c2,1,3.2,1.9,3.9,2.8c0.7,0.9,1,1.9,1,3
			C102,56.8,101.4,58.2,100.2,59.3z"/>
	</g>
	<path d="M112.5,87.1c0-4.9-3.8-9.2-8.4-9.2H71.6c-2,5-6.1,8.4-10.6,8.4c-4.1-0.4-6.1-2.2-8-4.2l-3.5-3.4L34.1,63.8
		c-0.6-0.5-1.3-1.1-2.2-1.6c-0.6-0.4-1.2-0.7-1.9-0.9c-0.9-0.3-1.3-0.4-3-0.4V55c1.7,0,3.1,0.2,4.7,0.7c3,1,5.4,3,6.6,4.1l18.2,18
		c1.2,1.1,2.7,1.7,4.3,1.7c3.7,0,6.7-3.2,6.7-7.1c0-1.8-0.7-3.6-1.9-4.9L30.2,30.2c-5.6-5.6-11.1-6-15.6-6c-0.6,0-1.3,0-1.9,0
		l-12.6,0v31.8H5c3.5,0,5.8,0.8,8.4,3.7l29.5,29.7c4.6,4.2,10.6,6.9,16.7,6.9h44.5C108.7,96.3,112.5,92,112.5,87.1z"/>
</g>
</svg>
