<?xml version="1.0" encoding="utf-8"?>
<!-- Generator: Adobe Illustrator 19.2.0, SVG Export Plug-In . SVG Version: 6.00 Build 0)  -->
<svg version="1.1" id="Layer_1" xmlns="http://www.w3.org/2000/svg" xmlns:xlink="http://www.w3.org/1999/xlink" x="0px" y="0px"
	 viewBox="0 0 120.5 120.5" style="enable-background:new 0 0 120.5 120.5;" xml:space="preserve">
<style type="text/css">
	.st0{fill:none;stroke:#FF5500;stroke-miterlimit:10;}
	.st1{fill:#FF5500;}
	.st2{fill:#449988;}
	.st3{fill:#FFBB00;}
	.st4{fill:#002233;}
	.st5{clip-path:url(#SVGID_2_);}
	.st6{clip-path:url(#SVGID_4_);fill:#FF5500;}
	.st7{fill:#004256;}
	.st8{fill:#FFFFFF;}
	.st9{fill:none;stroke:#FFFFFF;stroke-width:3;stroke-linecap:round;stroke-miterlimit:10;}
	.st10{clip-path:url(#SVGID_6_);}
	.st11{clip-path:url(#SVGID_8_);fill:#FF5500;}
	.st12{fill:none;stroke:#FFFFFF;stroke-width:3;stroke-miterlimit:10;}
	.st13{fill:none;stroke:#FFFFFF;stroke-width:6;stroke-linecap:round;stroke-miterlimit:10;}
	.st14{enable-background:new    ;}
	.st15{clip-path:url(#SVGID_10_);}
	.st16{clip-path:url(#SVGID_12_);}
	.st17{clip-path:url(#SVGID_14_);enable-background:new    ;}
	.st18{clip-path:url(#SVGID_16_);}
	.st19{clip-path:url(#SVGID_18_);enable-background:new    ;}
	.st20{clip-path:url(#SVGID_20_);}
	.st21{clip-path:url(#SVGID_22_);}
	.st22{clip-path:url(#SVGID_26_);enable-background:new    ;}
	.st23{clip-path:url(#SVGID_28_);}
	.st24{clip-path:url(#SVGID_30_);}
	.st25{clip-path:url(#SVGID_34_);}
	.st26{clip-path:url(#SVGID_36_);fill:#003687;}
	.st27{clip-path:url(#SVGID_38_);}
	.st28{clip-path:url(#SVGID_40_);}
	.st29{clip-path:url(#SVGID_42_);enable-background:new    ;}
	.st30{clip-path:url(#SVGID_44_);}
	.st31{clip-path:url(#SVGID_46_);enable-background:new    ;}
	.st32{clip-path:url(#SVGID_48_);}
	.st33{clip-path:url(#SVGID_50_);}
	.st34{clip-path:url(#SVGID_54_);enable-background:new    ;}
	.st35{clip-path:url(#SVGID_56_);}
	.st36{clip-path:url(#SVGID_58_);}
	.st37{clip-path:url(#SVGID_62_);}
	.st38{clip-path:url(#SVGID_64_);fill:#003687;}
	.st39{clip-path:url(#SVGID_66_);}
	.st40{clip-path:url(#SVGID_68_);}
	.st41{clip-path:url(#SVGID_70_);enable-background:new    ;}
	.st42{clip-path:url(#SVGID_72_);}
	.st43{clip-path:url(#SVGID_74_);fill:#4A4A4A;}
	.st44{clip-path:url(#SVGID_76_);enable-background:new    ;}
	.st45{clip-path:url(#SVGID_78_);}
	.st46{clip-path:url(#SVGID_80_);}
	.st47{clip-path:url(#SVGID_84_);enable-background:new    ;}
	.st48{clip-path:url(#SVGID_86_);}
	.st49{clip-path:url(#SVGID_88_);}
	.st50{clip-path:url(#SVGID_92_);}
	.st51{clip-path:url(#SVGID_94_);}
	.st52{clip-path:url(#SVGID_96_);fill-rule:evenodd;clip-rule:evenodd;fill:#003344;}
	.st53{clip-path:url(#SVGID_98_);}
	.st54{clip-path:url(#SVGID_100_);fill:none;stroke:#979797;stroke-width:2;stroke-miterlimit:10;}
	.st55{clip-path:url(#SVGID_102_);}
	.st56{clip-path:url(#SVGID_104_);}
	.st57{clip-path:url(#SVGID_106_);enable-background:new    ;}
	.st58{clip-path:url(#SVGID_108_);}
	.st59{clip-path:url(#SVGID_110_);fill:#4A4A4A;}
	.st60{clip-path:url(#SVGID_112_);enable-background:new    ;}
	.st61{clip-path:url(#SVGID_114_);}
	.st62{clip-path:url(#SVGID_116_);}
	.st63{clip-path:url(#SVGID_120_);enable-background:new    ;}
	.st64{clip-path:url(#SVGID_122_);}
	.st65{clip-path:url(#SVGID_124_);}
	.st66{clip-path:url(#SVGID_128_);}
	.st67{clip-path:url(#SVGID_130_);}
	.st68{clip-path:url(#SVGID_132_);fill-rule:evenodd;clip-rule:evenodd;fill:#003344;}
	.st69{clip-path:url(#SVGID_134_);}
	.st70{clip-path:url(#SVGID_136_);fill:none;stroke:#979797;stroke-width:2;stroke-miterlimit:10;}
	.st71{clip-path:url(#SVGID_138_);}
	.st72{clip-path:url(#SVGID_140_);}
	.st73{clip-path:url(#SVGID_142_);}
	.st74{clip-path:url(#SVGID_144_);}
	.st75{clip-path:url(#SVGID_146_);}
	.st76{clip-path:url(#SVGID_148_);}
	.st77{clip-path:url(#SVGID_150_);}
	.st78{clip-path:url(#SVGID_152_);}
	.st79{clip-path:url(#SVGID_154_);}
	.st80{clip-path:url(#SVGID_156_);}
	.st81{clip-path:url(#SVGID_158_);}
	.st82{clip-path:url(#SVGID_160_);}
	.st83{clip-path:url(#SVGID_162_);}
	.st84{clip-path:url(#SVGID_164_);}
	.st85{clip-path:url(#SVGID_166_);}
	.st86{clip-path:url(#SVGID_168_);}
	.st87{clip-path:url(#SVGID_170_);}
	.st88{clip-path:url(#SVGID_172_);}
	.st89{clip-path:url(#SVGID_174_);}
	.st90{clip-path:url(#SVGID_176_);}
	.st91{clip-path:url(#SVGID_178_);}
	.st92{clip-path:url(#SVGID_180_);}
	.st93{clip-path:url(#SVGID_182_);}
	.st94{clip-path:url(#SVGID_184_);}
	.st95{clip-path:url(#SVGID_186_);}
	.st96{clip-path:url(#SVGID_188_);}
	.st97{clip-path:url(#SVGID_190_);}
	.st98{clip-path:url(#SVGID_192_);}
	.st99{clip-path:url(#SVGID_194_);}
	.st100{clip-path:url(#SVGID_196_);}
	.st101{clip-path:url(#SVGID_198_);}
	.st102{clip-path:url(#SVGID_200_);}
	.st103{clip-path:url(#SVGID_202_);}
	.st104{clip-path:url(#SVGID_204_);}
	.st105{clip-path:url(#SVGID_206_);}
	.st106{clip-path:url(#SVGID_208_);}
	.st107{clip-path:url(#SVGID_210_);}
	.st108{clip-path:url(#SVGID_212_);}
	.st109{clip-path:url(#SVGID_214_);}
	.st110{clip-path:url(#SVGID_216_);}
	.st111{fill-rule:evenodd;clip-rule:evenodd;}
	.st112{clip-path:url(#SVGID_218_);}
	.st113{clip-path:url(#SVGID_220_);}
	.st114{clip-path:url(#SVGID_222_);}
	.st115{clip-path:url(#SVGID_224_);}
	.st116{clip-path:url(#SVGID_226_);}
	.st117{clip-path:url(#SVGID_228_);}
	.st118{clip-path:url(#SVGID_230_);}
	.st119{clip-path:url(#SVGID_232_);}
	.st120{clip-path:url(#SVGID_234_);}
	.st121{clip-path:url(#SVGID_236_);}
	.st122{clip-path:url(#SVGID_238_);}
	.st123{clip-path:url(#SVGID_240_);}
	.st124{clip-path:url(#SVGID_242_);}
	.st125{clip-path:url(#SVGID_246_);}
	.st126{clip-path:url(#SVGID_250_);}
	.st127{fill-rule:evenodd;clip-rule:evenodd;fill:#FFFFFF;}
	.st128{clip-path:url(#SVGID_254_);}
	.st129{clip-path:url(#SVGID_256_);fill:#FFFFFF;}
	.st130{clip-path:url(#SVGID_258_);}
	.st131{clip-path:url(#SVGID_260_);fill:#FFFFFF;}
	.st132{clip-path:url(#SVGID_262_);}
	.st133{clip-path:url(#SVGID_264_);fill:#FFFFFF;}
	.st134{clip-path:url(#SVGID_266_);}
	.st135{clip-path:url(#SVGID_270_);}
	.st136{clip-path:url(#SVGID_274_);}
</style>
<g class="st14">
	<g>
		<defs>
			<rect id="SVGID_101_" x="-241.9" y="-144.3" width="48.3" height="119.1"/>
		</defs>
		<clipPath id="SVGID_2_">
			<use xlink:href="#SVGID_101_"  style="overflow:visible;"/>
		</clipPath>
		<g class="st5">
			<defs>
				<path id="SVGID_103_" d="M-197.9-76.2c2.9,0,4.8-3.4,4.2-7.5l-2.9-20.9c-0.6-4.1-4.4-7.5-8.6-7.5h-25c-4.1,0-8,3.4-8.6,7.5
					l-2.9,20.9c-0.6,4.1,1.3,7.5,4.2,7.5s5.5,3.4,5.8,7.6l2.6,35.7c0.3,4.2,3.9,7.6,8.1,7.6h6.4c4.1,0,7.8-3.4,8.1-7.6l2.6-35.7
					C-203.4-72.8-200.7-76.2-197.9-76.2z M-203.8-130.3c0,7.7-6.2,13.9-13.7,13.9s-13.7-6.2-13.7-13.9c0-7.7,6.2-13.9,13.7-13.9
					S-203.8-138-203.8-130.3z"/>
			</defs>
			<clipPath id="SVGID_4_">
				<use xlink:href="#SVGID_103_"  style="overflow:visible;"/>
			</clipPath>
			<g style="clip-path:url(#SVGID_4_);">
				<defs>
					<rect id="SVGID_105_" x="-241.9" y="-144.3" width="48.3" height="119.1"/>
				</defs>
				<clipPath id="SVGID_6_">
					<use xlink:href="#SVGID_105_"  style="overflow:visible;"/>
				</clipPath>
				<g style="clip-path:url(#SVGID_6_);enable-background:new    ;">
					<g>
						<defs>
							<rect id="SVGID_107_" x="-241.9" y="-144.3" width="48.3" height="119.1"/>
						</defs>
						<clipPath id="SVGID_8_">
							<use xlink:href="#SVGID_107_"  style="overflow:visible;"/>
						</clipPath>
					</g>
				</g>
			</g>
		</g>
	</g>
</g>
<g>
	<g>
		<defs>
			<path id="SVGID_153_" d="M498.1,119.5h-35c-2.1,0-4,1.5-4.2,3.5c-0.2,2.1,1.6,3.9,3.9,3.9h1.2c0.4,0,0.7,0.3,0.7,0.7v26.7
				c0,2,1.6,3.8,3.7,3.9c2.2,0.1,4.2-1.5,4.2-3.6v-18c0-0.4,0.4-0.8,0.9-0.8h13.7c0.4,0,0.9,0.4,0.9,0.8v17.7c0,2,1.6,3.8,3.7,3.9
				c2.2,0.1,4.2-1.5,4.2-3.6v-27c0-0.4,0.3-0.7,0.7-0.7h1c2.1,0,4-1.5,4.2-3.5C502.1,121.2,500.3,119.5,498.1,119.5z"/>
		</defs>
		<use xlink:href="#SVGID_153_"  style="overflow:visible;fill-rule:evenodd;clip-rule:evenodd;"/>
		<clipPath id="SVGID_10_">
			<use xlink:href="#SVGID_153_"  style="overflow:visible;"/>
		</clipPath>
		<g class="st15">
			<defs>
				<rect id="SVGID_155_" x="-111.9" y="62.4" width="926.8" height="418.5"/>
			</defs>
			<use xlink:href="#SVGID_155_"  style="overflow:visible;"/>
			<clipPath id="SVGID_12_">
				<use xlink:href="#SVGID_155_"  style="overflow:visible;"/>
			</clipPath>
		</g>
	</g>
	<g>
		<defs>
			<path id="SVGID_157_" d="M517.3,90.9c0,4.2-3.6,7.6-8,7.6c-4.4,0-8-3.4-8-7.6c0-4.2,3.6-7.6,8-7.6
				C513.7,83.3,517.3,86.7,517.3,90.9"/>
		</defs>
		<use xlink:href="#SVGID_157_"  style="overflow:visible;fill-rule:evenodd;clip-rule:evenodd;"/>
		<clipPath id="SVGID_14_">
			<use xlink:href="#SVGID_157_"  style="overflow:visible;"/>
		</clipPath>
		<g style="clip-path:url(#SVGID_14_);">
			<defs>
				<rect id="SVGID_159_" x="-111.9" y="59.1" width="926.8" height="418.5"/>
			</defs>
			<use xlink:href="#SVGID_159_"  style="overflow:visible;"/>
			<clipPath id="SVGID_16_">
				<use xlink:href="#SVGID_159_"  style="overflow:visible;"/>
			</clipPath>
		</g>
	</g>
	<g>
		<defs>
			<path id="SVGID_161_" d="M534.1,109.4c-2.1,0.1-3.7,2-3.7,3.9v7.9c0,0.1-0.2,0.1-0.3,0l-3.6-14.5c-1-4.2-5.4-7.3-10-6.5
				c-3,0.6-5.4,2.4-6.4,4.9c-0.2,0.3-0.3,0.6-0.7,0.6c-3.1,0.8-7.4,0.6-11.8-4.2l0.3-0.4c0.4-0.6,0.3-1.4-0.4-1.8
				c-0.6-0.4-1.5-0.3-1.9,0.4l-0.3,0.6c-1-0.1-2.1,0-3,0.6c-1.6,1.1-2.1,3.1-1.2,4.8c0.2,0.1,0.2,0.4,0,0.6l-3.1,4.4
				c-0.4,0.6-0.3,1.4,0.4,1.8c0.3,0.1,0.6,0.3,0.7,0.3c0.4,0,0.9-0.1,1.2-0.6l2.5-3.5c0.2-0.3,0.7-0.3,1-0.1
				c4.3,3.8,8.8,5.2,12.8,5.2c1,0,2.1-0.1,3.1-0.3c0.4-0.1,0.9,0.1,0.9,0.6l2.4,9.7c0.2,0.6-0.3,1-0.9,1h-8.5c-2.2,0-4,1.7-4,3.8v26
				c0,2,1.6,3.8,3.7,3.9c2.2,0.1,4.2-1.5,4.2-3.6v-21.8c0-0.4,0.4-0.8,0.9-0.8h11.3c0.7,0.1,3.4,0.3,4,0.1c0.2,0,0.2,0,0.3-0.1h1.5
				c2.2,0,4-1.7,4-3.8V128c0.3-0.6,0.6-1.3,0.9-2v6.7c0,0.4-0.4,0.8-0.9,0.8h-13.6c-2.2,0-4,1.7-4,3.8v16.7c0,2,1.6,3.8,3.7,3.9
				c2.2,0.1,4.2-1.5,4.2-3.6v-12.4c0-0.4,0.4-0.8,0.9-0.8h8.8c0.4,0,0.9,0.4,0.9,0.8v12.2c0,2,1.6,3.8,3.7,3.9
				c2.2,0.1,4.2-1.5,4.2-3.6v-41.4C538.3,110.9,536.3,109.2,534.1,109.4z"/>
		</defs>
		<use xlink:href="#SVGID_161_"  style="overflow:visible;fill-rule:evenodd;clip-rule:evenodd;"/>
		<clipPath id="SVGID_18_">
			<use xlink:href="#SVGID_161_"  style="overflow:visible;"/>
		</clipPath>
		<g style="clip-path:url(#SVGID_18_);">
			<defs>
				<rect id="SVGID_163_" x="-111.9" y="58.4" width="926.8" height="418.5"/>
			</defs>
			<use xlink:href="#SVGID_163_"  style="overflow:visible;"/>
			<clipPath id="SVGID_20_">
				<use xlink:href="#SVGID_163_"  style="overflow:visible;"/>
			</clipPath>
		</g>
	</g>
	<g>
		<defs>
			<path id="SVGID_165_" d="M463.4,79.8c0,4.8-4.1,8.7-9.2,8.7c-5.1,0-9.2-3.9-9.2-8.7c0-4.8,4.1-8.7,9.2-8.7
				C459.2,71.1,463.4,75,463.4,79.8"/>
		</defs>
		<use xlink:href="#SVGID_165_"  style="overflow:visible;fill-rule:evenodd;clip-rule:evenodd;"/>
		<clipPath id="SVGID_22_">
			<use xlink:href="#SVGID_165_"  style="overflow:visible;"/>
		</clipPath>
		<g class="st21">
			<defs>
				<rect id="SVGID_167_" x="-111.9" y="62.4" width="926.8" height="418.5"/>
			</defs>
			<use xlink:href="#SVGID_167_"  style="overflow:visible;"/>
			<clipPath id="SVGID_24_">
				<use xlink:href="#SVGID_167_"  style="overflow:visible;"/>
			</clipPath>
		</g>
	</g>
	<g>
		<defs>
			<path id="SVGID_169_" d="M484.4,87.6h-13.1c-0.4,0-0.9,0.3-0.9,0.8v11c0,0,0,0-0.2,0c-6.7,3.2-11.5,1.7-14.3-0.6
				c0-0.1-0.2-0.1-0.2-0.3c-0.7-3.5-3.4-6.3-7.3-7.2c-5.2-1.1-10.4,2-11.6,6.9l-4,16.4c-0.9,3.5,3.7,39,3.7,39
				c0,2.2,1.8,4.4,4.2,4.5c2.5,0.1,4.8-1.8,4.8-4.2c0,0,5.5-32.2,6.3-35.1l2.5-10.5c0.2-0.3,0.4-0.6,0.7-0.4c2.4,1,5.1,1.7,8,1.7
				c3.4,0,7.4-0.8,11.6-2.9c0.3-0.1,0.6-0.4,0.9-0.6h8.6c0.4,0,0.9-0.3,0.9-0.8v-17C485.2,87.9,484.8,87.6,484.4,87.6z"/>
		</defs>
		<use xlink:href="#SVGID_169_"  style="overflow:visible;fill-rule:evenodd;clip-rule:evenodd;"/>
		<clipPath id="SVGID_26_">
			<use xlink:href="#SVGID_169_"  style="overflow:visible;"/>
		</clipPath>
		<g style="clip-path:url(#SVGID_26_);">
			<defs>
				<rect id="SVGID_171_" x="-111.9" y="62.4" width="926.8" height="418.5"/>
			</defs>
			<use xlink:href="#SVGID_171_"  style="overflow:visible;"/>
			<clipPath id="SVGID_28_">
				<use xlink:href="#SVGID_171_"  style="overflow:visible;"/>
			</clipPath>
		</g>
	</g>
</g>
<g>
	<g>
		<defs>
			<path id="SVGID_173_" d="M72.8,65.1h-35c-2.1,0-4,1.5-4.2,3.5c-0.2,2.1,1.6,3.9,3.9,3.9h1.2c0.4,0,0.7,0.3,0.7,0.7v26.7
				c0,2,1.6,3.8,3.7,3.9c2.2,0.1,4.2-1.5,4.2-3.6v-18c0-0.4,0.4-0.8,0.9-0.8h13.7c0.4,0,0.9,0.4,0.9,0.8v17.7c0,2,1.6,3.8,3.7,3.9
				c2.2,0.1,4.2-1.5,4.2-3.6v-27c0-0.4,0.3-0.7,0.7-0.7h1c2.1,0,4-1.5,4.2-3.5C76.8,66.8,75,65.1,72.8,65.1z"/>
		</defs>
		<use xlink:href="#SVGID_173_"  style="overflow:visible;fill-rule:evenodd;clip-rule:evenodd;"/>
		<clipPath id="SVGID_30_">
			<use xlink:href="#SVGID_173_"  style="overflow:visible;"/>
		</clipPath>
		<g class="st24">
			<defs>
				<rect id="SVGID_175_" x="-537.2" y="8" width="926.8" height="418.5"/>
			</defs>
			<use xlink:href="#SVGID_175_"  style="overflow:visible;"/>
			<clipPath id="SVGID_32_">
				<use xlink:href="#SVGID_175_"  style="overflow:visible;"/>
			</clipPath>
			<rect x="28" y="59.6" style="clip-path:url(#SVGID_32_);" width="54.1" height="49.8"/>
		</g>
	</g>
	<g>
		<defs>
			<path id="SVGID_177_" d="M92,36.5c0,4.2-3.6,7.6-8,7.6c-4.4,0-8-3.4-8-7.6c0-4.2,3.6-7.6,8-7.6C88.4,28.9,92,32.3,92,36.5"/>
		</defs>
		<use xlink:href="#SVGID_177_"  style="overflow:visible;fill-rule:evenodd;clip-rule:evenodd;"/>
		<clipPath id="SVGID_34_">
			<use xlink:href="#SVGID_177_"  style="overflow:visible;"/>
		</clipPath>
		<g class="st25">
			<defs>
				<rect id="SVGID_179_" x="-537.2" y="4.7" width="926.8" height="418.5"/>
			</defs>
			<use xlink:href="#SVGID_179_"  style="overflow:visible;"/>
			<clipPath id="SVGID_36_">
				<use xlink:href="#SVGID_179_"  style="overflow:visible;"/>
			</clipPath>
			<rect x="70.3" y="23.4" style="clip-path:url(#SVGID_36_);" width="27.2" height="26.2"/>
		</g>
	</g>
	<g>
		<defs>
			<path id="SVGID_181_" d="M108.8,55c-2.1,0.1-3.7,2-3.7,3.9v7.9c0,0.1-0.2,0.1-0.3,0l-3.6-14.5c-1-4.2-5.4-7.3-10-6.5
				c-3,0.6-5.4,2.4-6.4,4.9c-0.2,0.3-0.3,0.6-0.7,0.6c-3.1,0.8-7.4,0.6-11.8-4.2l0.3-0.4c0.4-0.6,0.3-1.4-0.4-1.8
				c-0.6-0.4-1.5-0.3-1.9,0.4l-0.3,0.6c-1-0.1-2.1,0-3,0.6c-1.6,1.1-2.1,3.1-1.2,4.8c0.2,0.1,0.2,0.4,0,0.6l-3.1,4.4
				c-0.4,0.6-0.3,1.4,0.4,1.8c0.3,0.1,0.6,0.3,0.7,0.3c0.4,0,0.9-0.1,1.2-0.6l2.5-3.5c0.2-0.3,0.7-0.3,1-0.1
				c4.3,3.8,8.8,5.2,12.8,5.2c1,0,2.1-0.1,3.1-0.3c0.4-0.1,0.9,0.1,0.9,0.6l2.4,9.7c0.2,0.6-0.3,1-0.9,1h-8.5c-2.2,0-4,1.7-4,3.8v26
				c0,2,1.6,3.8,3.7,3.9c2.2,0.1,4.2-1.5,4.2-3.6V78.4c0-0.4,0.4-0.8,0.9-0.8h11.3c0.7,0.1,3.4,0.3,4,0.1c0.2,0,0.2,0,0.3-0.1h1.5
				c2.2,0,4-1.7,4-3.8v-0.1c0.3-0.6,0.6-1.3,0.9-2v6.7c0,0.4-0.4,0.8-0.9,0.8H90.8c-2.2,0-4,1.7-4,3.8v16.7c0,2,1.6,3.8,3.7,3.9
				c2.2,0.1,4.2-1.5,4.2-3.6V87.7c0-0.4,0.4-0.8,0.9-0.8h8.8c0.4,0,0.9,0.4,0.9,0.8v12.2c0,2,1.6,3.8,3.7,3.9
				c2.2,0.1,4.2-1.5,4.2-3.6V58.8C113,56.5,111,54.8,108.8,55z"/>
		</defs>
		<use xlink:href="#SVGID_181_"  style="overflow:visible;fill-rule:evenodd;clip-rule:evenodd;"/>
		<clipPath id="SVGID_38_">
			<use xlink:href="#SVGID_181_"  style="overflow:visible;"/>
		</clipPath>
		<g class="st27">
			<defs>
				<rect id="SVGID_183_" x="-537.2" y="4" width="926.8" height="418.5"/>
			</defs>
			<use xlink:href="#SVGID_183_"  style="overflow:visible;"/>
			<clipPath id="SVGID_40_">
				<use xlink:href="#SVGID_183_"  style="overflow:visible;"/>
			</clipPath>
			<rect x="56.8" y="39.1" class="st28" width="61.8" height="70.3"/>
		</g>
	</g>
	<g>
		<defs>
			<path id="SVGID_185_" d="M38.1,25.4c0,4.8-4.1,8.7-9.2,8.7c-5.1,0-9.2-3.9-9.2-8.7c0-4.8,4.1-8.7,9.2-8.7
				C33.9,16.7,38.1,20.6,38.1,25.4"/>
		</defs>
		<use xlink:href="#SVGID_185_"  style="overflow:visible;fill-rule:evenodd;clip-rule:evenodd;"/>
		<clipPath id="SVGID_42_">
			<use xlink:href="#SVGID_185_"  style="overflow:visible;"/>
		</clipPath>
		<g style="clip-path:url(#SVGID_42_);">
			<defs>
				<rect id="SVGID_187_" x="-537.2" y="8" width="926.8" height="418.5"/>
			</defs>
			<use xlink:href="#SVGID_187_"  style="overflow:visible;"/>
			<clipPath id="SVGID_44_">
				<use xlink:href="#SVGID_187_"  style="overflow:visible;"/>
			</clipPath>
			<rect x="14.1" y="11.1" class="st30" width="29.5" height="28.5"/>
		</g>
	</g>
	<g>
		<defs>
			<path id="SVGID_189_" d="M59,33.2H45.9c-0.4,0-0.9,0.3-0.9,0.8v11c0,0,0,0-0.2,0c-6.7,3.2-11.5,1.7-14.3-0.6
				c0-0.1-0.2-0.1-0.2-0.3c-0.7-3.5-3.4-6.3-7.3-7.2c-5.2-1.1-10.4,2-11.6,6.9l-4,16.4c-0.9,3.5,3.7,39,3.7,39
				c0,2.2,1.8,4.4,4.2,4.5c2.5,0.1,4.8-1.8,4.8-4.2c0,0,5.5-32.2,6.3-35.1L29,54c0.2-0.3,0.4-0.6,0.7-0.4c2.4,1,5.1,1.7,8,1.7
				c3.4,0,7.4-0.8,11.6-2.9c0.3-0.1,0.6-0.4,0.9-0.6h8.6c0.4,0,0.9-0.3,0.9-0.8v-17C59.9,33.5,59.5,33.2,59,33.2z"/>
		</defs>
		<use xlink:href="#SVGID_189_"  style="overflow:visible;fill-rule:evenodd;clip-rule:evenodd;"/>
		<clipPath id="SVGID_46_">
			<use xlink:href="#SVGID_189_"  style="overflow:visible;"/>
		</clipPath>
		<g style="clip-path:url(#SVGID_46_);">
			<defs>
				<rect id="SVGID_191_" x="-537.2" y="8" width="926.8" height="418.5"/>
			</defs>
			<use xlink:href="#SVGID_191_"  style="overflow:visible;"/>
			<clipPath id="SVGID_48_">
				<use xlink:href="#SVGID_191_"  style="overflow:visible;"/>
			</clipPath>
			<rect x="1.7" y="27.7" class="st32" width="63.6" height="81.7"/>
		</g>
	</g>
</g>
<g>
	<g>
		<defs>
			<path id="SVGID_205_" d="M238,57.4c-2.9,0-5.3-2.5-5.3-5.6c0-3.1,2.4-5.6,5.3-5.6c2.9,0,5.3,2.5,5.3,5.6
				C243.2,54.9,240.9,57.4,238,57.4z M228.5,79.9c-10.5,0-12.6-9-12.6-9h25.3C241.1,70.9,239,79.9,228.5,79.9z M213.7,51.8
				c0-3.1,2.4-5.6,5.3-5.6c2.9,0,5.3,2.5,5.3,5.6c0,3.1-2.4,5.6-5.3,5.6C216.1,57.4,213.7,54.9,213.7,51.8z M245.3,30.4
				c-4.2,0-8.4,4.5-16.8,4.5c-8.4,0-12.6-4.5-16.9-4.5c-2,0-4.2,2.2-4.2,4.5v31.5c0,10,4.2,22.5,21.1,22.5
				c16.8,0,21.1-12.5,21.1-22.5V34.9C249.5,32.7,247.3,30.4,245.3,30.4z"/>
		</defs>
		<use xlink:href="#SVGID_205_"  style="overflow:visible;fill-rule:evenodd;clip-rule:evenodd;"/>
		<clipPath id="SVGID_50_">
			<use xlink:href="#SVGID_205_"  style="overflow:visible;"/>
		</clipPath>
		<g class="st33">
			<defs>
				<rect id="SVGID_207_" x="-7.3" y="-291.8" width="898.7" height="405.9"/>
			</defs>
			<use xlink:href="#SVGID_207_"  style="overflow:visible;"/>
			<clipPath id="SVGID_52_">
				<use xlink:href="#SVGID_207_"  style="overflow:visible;"/>
			</clipPath>
		</g>
	</g>
	<g>
		<defs>
			<path id="SVGID_209_" d="M189.5,23.7c2.9,0,5.3,2.5,5.3,5.6c0,3.1-2.4,5.6-5.3,5.6c-2.9,0-5.3-2.5-5.3-5.6
				C184.2,26.2,186.6,23.7,189.5,23.7z M195.7,66.3c1,0.1,2.1,0.2,3.3,0.2c1.5,0,2.9-0.1,4.2-0.3V52.9h-16.8c0,0,2.1-9,12.6-9
				c2.1,0,2.9,0.3,4.2,0.8v-9.8c0-4.1,1.5-7.6,4.2-9c4.2-2.2,5.9-1.3,8.4,0l4.2,2.2V12.4c0-2.2-2.2-4.5-4.2-4.5
				c-4.2,0-8.4,4.5-16.9,4.5c-8.4,0-12.6-4.5-16.9-4.5c-2,0-4.2,2.2-4.2,4.5v31.5c0,4,0.7,8.4,2.6,12.3c0.7,0.3,1.5,0.7,2.2,1.1
				C187.8,60,192.2,63.1,195.7,66.3z"/>
		</defs>
		<use xlink:href="#SVGID_209_"  style="overflow:visible;fill-rule:evenodd;clip-rule:evenodd;"/>
		<clipPath id="SVGID_54_">
			<use xlink:href="#SVGID_209_"  style="overflow:visible;"/>
		</clipPath>
		<g style="clip-path:url(#SVGID_54_);">
			<defs>
				<rect id="SVGID_211_" x="-7.3" y="-291.8" width="898.7" height="405.9"/>
			</defs>
			<use xlink:href="#SVGID_211_"  style="overflow:visible;"/>
			<clipPath id="SVGID_56_">
				<use xlink:href="#SVGID_211_"  style="overflow:visible;"/>
			</clipPath>
		</g>
	</g>
	<g>
		<defs>
			<path id="SVGID_213_" d="M184.5,70.1c0.6,0,1.2,0.2,1.8,0.5c2,1.1,2.8,3.7,1.8,5.8c-0.7,1.5-2.1,2.3-3.6,2.3
				c-0.6,0-1.2-0.2-1.8-0.5c-2-1.1-2.8-3.7-1.8-5.8C181.6,70.9,183,70.1,184.5,70.1z M189.5,84.8c0.7-1.5,2.1-2.3,3.6-2.3
				c0.6,0,1.2,0.2,1.8,0.5c2,1.1,2.8,3.7,1.8,5.8c-0.7,1.5-2.1,2.3-3.6,2.3c-0.6,0-1.2-0.1-1.8-0.5
				C189.2,89.5,188.5,86.9,189.5,84.8z M176.6,70.1c-0.7,1.5-2.1,2.3-3.6,2.3c-0.6,0-1.2-0.1-1.8-0.5c-2-1.1-2.8-3.7-1.8-5.8
				c0.7-1.5,2.1-2.3,3.6-2.3c0.6,0,1.2,0.1,1.8,0.5C176.9,65.4,177.6,68,176.6,70.1z M173.2,100c-0.9,1.8-2.5,2.8-4.3,2.8
				c-0.7,0-1.5-0.2-2.2-0.6c-2.4-1.3-3.3-4.4-2.1-6.9c0.9-1.8,2.5-2.8,4.3-2.8c0.7,0,1.5,0.2,2.2,0.6
				C173.5,94.4,174.4,97.5,173.2,100z M162.2,73.8c-0.7,1.5-2.1,2.3-3.6,2.3c-0.6,0-1.2-0.1-1.8-0.5c-2-1.1-2.8-3.7-1.8-5.8
				c0.7-1.5,2.1-2.3,3.6-2.3c0.6,0,1.2,0.1,1.8,0.5C162.5,69.1,163.2,71.7,162.2,73.8z M168.6,56.8c-9.3,0-16.8,5-18.9,9.2
				c-2.9,6.1-2.2,12.3,3.5,15.4c5.7,3.1,7.9,6.2,5.7,10.8c-2.9,6.1-0.8,13,4.9,16.2c6.7,3.6,12.7,5.2,18,5.2
				c9.4,0,16.2-4.9,19.4-11.8c8.7-18.4-2.7-32.3-19.8-41.6C177,57.8,172.6,56.8,168.6,56.8z"/>
		</defs>
		<use xlink:href="#SVGID_213_"  style="overflow:visible;fill-rule:evenodd;clip-rule:evenodd;"/>
		<clipPath id="SVGID_58_">
			<use xlink:href="#SVGID_213_"  style="overflow:visible;"/>
		</clipPath>
		<g class="st36">
			<defs>
				<rect id="SVGID_215_" x="-7.3" y="-291.8" width="898.7" height="405.9"/>
			</defs>
			<use xlink:href="#SVGID_215_"  style="overflow:visible;"/>
			<clipPath id="SVGID_60_">
				<use xlink:href="#SVGID_215_"  style="overflow:visible;"/>
			</clipPath>
		</g>
	</g>
</g>
</svg>
