<?xml version="1.0" encoding="utf-8"?>
<!-- Generator: Adobe Illustrator 19.2.0, SVG Export Plug-In . SVG Version: 6.00 Build 0)  -->
<svg version="1.1" id="Layer_1" xmlns="http://www.w3.org/2000/svg" xmlns:xlink="http://www.w3.org/1999/xlink" x="0px" y="0px"
	 viewBox="0 0 120.5 120.5" style="enable-background:new 0 0 120.5 120.5;" xml:space="preserve">
<style type="text/css">
	.st0{fill:none;stroke:#FF5500;stroke-miterlimit:10;}
	.st1{fill:#FF5500;}
	.st2{fill:#449988;}
	.st3{fill:#FFBB00;}
	.st4{fill:#002233;}
	.st5{clip-path:url(#SVGID_2_);}
	.st6{clip-path:url(#SVGID_4_);fill:#FF5500;}
	.st7{fill:#004256;}
	.st8{fill:#FFFFFF;}
	.st9{fill:none;stroke:#FFFFFF;stroke-width:3;stroke-linecap:round;stroke-miterlimit:10;}
	.st10{clip-path:url(#SVGID_6_);}
	.st11{clip-path:url(#SVGID_8_);fill:#FF5500;}
	.st12{fill:none;stroke:#FFFFFF;stroke-width:3;stroke-miterlimit:10;}
	.st13{fill:none;stroke:#FFFFFF;stroke-width:6;stroke-linecap:round;stroke-miterlimit:10;}
	.st14{enable-background:new    ;}
	.st15{clip-path:url(#SVGID_10_);}
	.st16{clip-path:url(#SVGID_12_);}
	.st17{clip-path:url(#SVGID_14_);enable-background:new    ;}
	.st18{clip-path:url(#SVGID_16_);}
	.st19{clip-path:url(#SVGID_18_);enable-background:new    ;}
	.st20{clip-path:url(#SVGID_20_);}
	.st21{clip-path:url(#SVGID_22_);}
	.st22{clip-path:url(#SVGID_26_);enable-background:new    ;}
	.st23{clip-path:url(#SVGID_28_);}
	.st24{clip-path:url(#SVGID_30_);}
	.st25{clip-path:url(#SVGID_34_);}
	.st26{clip-path:url(#SVGID_36_);fill:#003687;}
	.st27{clip-path:url(#SVGID_38_);}
	.st28{clip-path:url(#SVGID_40_);}
	.st29{clip-path:url(#SVGID_42_);enable-background:new    ;}
	.st30{clip-path:url(#SVGID_44_);}
	.st31{clip-path:url(#SVGID_46_);enable-background:new    ;}
	.st32{clip-path:url(#SVGID_48_);}
	.st33{clip-path:url(#SVGID_50_);}
	.st34{clip-path:url(#SVGID_54_);enable-background:new    ;}
	.st35{clip-path:url(#SVGID_56_);}
	.st36{clip-path:url(#SVGID_58_);}
	.st37{clip-path:url(#SVGID_62_);}
	.st38{clip-path:url(#SVGID_64_);fill:#003687;}
	.st39{clip-path:url(#SVGID_66_);}
	.st40{clip-path:url(#SVGID_68_);}
	.st41{clip-path:url(#SVGID_70_);enable-background:new    ;}
	.st42{clip-path:url(#SVGID_72_);}
	.st43{clip-path:url(#SVGID_74_);fill:#4A4A4A;}
	.st44{clip-path:url(#SVGID_76_);enable-background:new    ;}
	.st45{clip-path:url(#SVGID_78_);}
	.st46{clip-path:url(#SVGID_80_);}
	.st47{clip-path:url(#SVGID_84_);enable-background:new    ;}
	.st48{clip-path:url(#SVGID_86_);}
	.st49{clip-path:url(#SVGID_88_);}
	.st50{clip-path:url(#SVGID_92_);}
	.st51{clip-path:url(#SVGID_94_);}
	.st52{clip-path:url(#SVGID_96_);fill-rule:evenodd;clip-rule:evenodd;fill:#003344;}
	.st53{clip-path:url(#SVGID_98_);}
	.st54{clip-path:url(#SVGID_100_);fill:none;stroke:#979797;stroke-width:2;stroke-miterlimit:10;}
	.st55{clip-path:url(#SVGID_102_);}
	.st56{clip-path:url(#SVGID_104_);}
	.st57{clip-path:url(#SVGID_106_);enable-background:new    ;}
	.st58{clip-path:url(#SVGID_108_);}
	.st59{clip-path:url(#SVGID_110_);fill:#4A4A4A;}
	.st60{clip-path:url(#SVGID_112_);enable-background:new    ;}
	.st61{clip-path:url(#SVGID_114_);}
	.st62{clip-path:url(#SVGID_116_);}
	.st63{clip-path:url(#SVGID_120_);enable-background:new    ;}
	.st64{clip-path:url(#SVGID_122_);}
	.st65{clip-path:url(#SVGID_124_);}
	.st66{clip-path:url(#SVGID_128_);}
	.st67{clip-path:url(#SVGID_130_);}
	.st68{clip-path:url(#SVGID_132_);fill-rule:evenodd;clip-rule:evenodd;fill:#003344;}
	.st69{clip-path:url(#SVGID_134_);}
	.st70{clip-path:url(#SVGID_136_);fill:none;stroke:#979797;stroke-width:2;stroke-miterlimit:10;}
	.st71{clip-path:url(#SVGID_138_);}
	.st72{clip-path:url(#SVGID_140_);}
	.st73{clip-path:url(#SVGID_142_);}
	.st74{clip-path:url(#SVGID_144_);}
	.st75{clip-path:url(#SVGID_146_);}
	.st76{clip-path:url(#SVGID_148_);}
	.st77{clip-path:url(#SVGID_150_);}
	.st78{clip-path:url(#SVGID_152_);}
	.st79{clip-path:url(#SVGID_154_);}
	.st80{clip-path:url(#SVGID_156_);}
	.st81{clip-path:url(#SVGID_158_);}
	.st82{clip-path:url(#SVGID_160_);}
	.st83{clip-path:url(#SVGID_162_);}
	.st84{clip-path:url(#SVGID_164_);}
	.st85{clip-path:url(#SVGID_166_);}
	.st86{clip-path:url(#SVGID_168_);}
	.st87{clip-path:url(#SVGID_170_);}
	.st88{clip-path:url(#SVGID_172_);}
	.st89{clip-path:url(#SVGID_174_);}
	.st90{clip-path:url(#SVGID_176_);}
	.st91{clip-path:url(#SVGID_178_);}
	.st92{clip-path:url(#SVGID_180_);}
	.st93{clip-path:url(#SVGID_182_);}
	.st94{clip-path:url(#SVGID_184_);}
	.st95{clip-path:url(#SVGID_186_);}
	.st96{clip-path:url(#SVGID_188_);}
	.st97{clip-path:url(#SVGID_190_);}
	.st98{clip-path:url(#SVGID_192_);}
	.st99{clip-path:url(#SVGID_194_);}
	.st100{clip-path:url(#SVGID_196_);}
	.st101{clip-path:url(#SVGID_198_);}
	.st102{clip-path:url(#SVGID_200_);}
	.st103{clip-path:url(#SVGID_202_);}
	.st104{clip-path:url(#SVGID_204_);}
	.st105{clip-path:url(#SVGID_206_);}
	.st106{clip-path:url(#SVGID_208_);}
	.st107{clip-path:url(#SVGID_210_);}
	.st108{clip-path:url(#SVGID_212_);}
	.st109{clip-path:url(#SVGID_214_);}
	.st110{clip-path:url(#SVGID_216_);}
	.st111{fill-rule:evenodd;clip-rule:evenodd;}
	.st112{clip-path:url(#SVGID_218_);}
	.st113{clip-path:url(#SVGID_220_);}
	.st114{clip-path:url(#SVGID_222_);}
	.st115{clip-path:url(#SVGID_224_);}
	.st116{clip-path:url(#SVGID_226_);}
	.st117{clip-path:url(#SVGID_228_);}
	.st118{clip-path:url(#SVGID_230_);}
	.st119{clip-path:url(#SVGID_232_);}
	.st120{clip-path:url(#SVGID_234_);}
	.st121{clip-path:url(#SVGID_236_);}
	.st122{clip-path:url(#SVGID_238_);}
	.st123{clip-path:url(#SVGID_240_);}
	.st124{clip-path:url(#SVGID_242_);}
	.st125{clip-path:url(#SVGID_246_);}
	.st126{clip-path:url(#SVGID_250_);}
	.st127{fill-rule:evenodd;clip-rule:evenodd;fill:#FFFFFF;}
	.st128{clip-path:url(#SVGID_254_);}
	.st129{clip-path:url(#SVGID_256_);fill:#FFFFFF;}
	.st130{clip-path:url(#SVGID_258_);}
	.st131{clip-path:url(#SVGID_260_);fill:#FFFFFF;}
	.st132{clip-path:url(#SVGID_262_);}
	.st133{clip-path:url(#SVGID_264_);fill:#FFFFFF;}
	.st134{clip-path:url(#SVGID_266_);}
	.st135{clip-path:url(#SVGID_270_);}
	.st136{clip-path:url(#SVGID_274_);}
</style>
<g>
	<g>
		<defs>
			<path id="SVGID_145_" d="M-96.7,72.5l-10.4,10.2c-0.1,0.1-0.8,0.5-1.2,0.5l-5.5,0.5l-11.6,15.9l4.9,4.6l16.9-11.1l0.4-5.1
				c0-0.4,0.5-1.1,0.8-1.2l10.9-10L-96.7,72.5z"/>
		</defs>
		<use xlink:href="#SVGID_145_"  style="overflow:visible;fill-rule:evenodd;clip-rule:evenodd;"/>
		<clipPath id="SVGID_2_">
			<use xlink:href="#SVGID_145_"  style="overflow:visible;"/>
		</clipPath>
		<g class="st5">
			<defs>
				<rect id="SVGID_147_" x="-125.4" y="8.3" width="887" height="400.6"/>
			</defs>
			<use xlink:href="#SVGID_147_"  style="overflow:visible;"/>
			<clipPath id="SVGID_4_">
				<use xlink:href="#SVGID_147_"  style="overflow:visible;"/>
			</clipPath>
		</g>
	</g>
	<g>
		<defs>
			<path id="SVGID_149_" d="M-39.6,34l-20.5,19.2c-1.8,1.7-4.8,1.7-6.7,0l27-25.5C-37.8,29.3-37.8,32.1-39.6,34z M-72,48.4
				c-1.8-1.7-1.8-4.5,0-6.3l20.3-19.2c1.8-1.7,4.8-1.7,6.7,0L-72,48.4z M-36.3,20.1c-5.4-5.1-14.3-5.1-19.7,0l-21.9,20.7
				c-1.8,1.7-3,4-3,6.3c-0.4,5.2-5.4,9.2-10.9,8.8c-6.3-0.7-10,6.4-5.4,10.8l12,11.3c4.5,4.3,12.1,0.8,11.5-5.1
				c-0.5-5.2,3.5-10,9.3-10.3c2.6-0.1,5-1.2,6.7-2.8l21.9-20.7C-30.8,33.6-30.8,25.2-36.3,20.1z"/>
		</defs>
		<use xlink:href="#SVGID_149_"  style="overflow:visible;fill-rule:evenodd;clip-rule:evenodd;"/>
		<clipPath id="SVGID_6_">
			<use xlink:href="#SVGID_149_"  style="overflow:visible;"/>
		</clipPath>
		<g class="st10">
			<defs>
				<rect id="SVGID_151_" x="-125.4" y="8.3" width="887" height="400.6"/>
			</defs>
			<use xlink:href="#SVGID_151_"  style="overflow:visible;"/>
			<clipPath id="SVGID_8_">
				<use xlink:href="#SVGID_151_"  style="overflow:visible;"/>
			</clipPath>
		</g>
	</g>
</g>
<g>
	<g>
		<defs>
			<path id="SVGID_153_" d="M359.1-175.5h-35c-2.1,0-4,1.5-4.2,3.5c-0.2,2.1,1.6,3.9,3.9,3.9h1.2c0.4,0,0.7,0.3,0.7,0.7v26.7
				c0,2,1.6,3.8,3.7,3.9c2.2,0.1,4.2-1.5,4.2-3.6v-18c0-0.4,0.4-0.8,0.9-0.8h13.7c0.4,0,0.9,0.4,0.9,0.8v17.7c0,2,1.6,3.8,3.7,3.9
				c2.2,0.1,4.2-1.5,4.2-3.6v-27c0-0.4,0.3-0.7,0.7-0.7h1c2.1,0,4-1.5,4.2-3.5C363.1-173.8,361.3-175.5,359.1-175.5z"/>
		</defs>
		<use xlink:href="#SVGID_153_"  style="overflow:visible;fill-rule:evenodd;clip-rule:evenodd;"/>
		<clipPath id="SVGID_10_">
			<use xlink:href="#SVGID_153_"  style="overflow:visible;"/>
		</clipPath>
		<g class="st15">
			<defs>
				<rect id="SVGID_155_" x="-250.9" y="-232.6" width="926.8" height="418.5"/>
			</defs>
			<use xlink:href="#SVGID_155_"  style="overflow:visible;"/>
			<clipPath id="SVGID_12_">
				<use xlink:href="#SVGID_155_"  style="overflow:visible;"/>
			</clipPath>
		</g>
	</g>
	<g>
		<defs>
			<path id="SVGID_157_" d="M378.3-204.1c0,4.2-3.6,7.6-8,7.6c-4.4,0-8-3.4-8-7.6c0-4.2,3.6-7.6,8-7.6
				C374.7-211.7,378.3-208.3,378.3-204.1"/>
		</defs>
		<use xlink:href="#SVGID_157_"  style="overflow:visible;fill-rule:evenodd;clip-rule:evenodd;"/>
		<clipPath id="SVGID_14_">
			<use xlink:href="#SVGID_157_"  style="overflow:visible;"/>
		</clipPath>
		<g style="clip-path:url(#SVGID_14_);">
			<defs>
				<rect id="SVGID_159_" x="-250.9" y="-235.9" width="926.8" height="418.5"/>
			</defs>
			<use xlink:href="#SVGID_159_"  style="overflow:visible;"/>
			<clipPath id="SVGID_16_">
				<use xlink:href="#SVGID_159_"  style="overflow:visible;"/>
			</clipPath>
		</g>
	</g>
	<g>
		<defs>
			<path id="SVGID_161_" d="M395.1-185.6c-2.1,0.1-3.7,2-3.7,3.9v7.9c0,0.1-0.2,0.1-0.3,0l-3.6-14.5c-1-4.2-5.4-7.3-10-6.5
				c-3,0.6-5.4,2.4-6.4,4.9c-0.2,0.3-0.3,0.6-0.7,0.6c-3.1,0.8-7.4,0.6-11.8-4.2l0.3-0.4c0.4-0.6,0.3-1.4-0.4-1.8
				c-0.6-0.4-1.5-0.3-1.9,0.4l-0.3,0.6c-1-0.1-2.1,0-3,0.6c-1.6,1.1-2.1,3.1-1.2,4.8c0.2,0.1,0.2,0.4,0,0.6l-3.1,4.4
				c-0.4,0.6-0.3,1.4,0.4,1.8c0.3,0.1,0.6,0.3,0.7,0.3c0.4,0,0.9-0.1,1.2-0.6l2.5-3.5c0.2-0.3,0.7-0.3,1-0.1
				c4.3,3.8,8.8,5.2,12.8,5.2c1,0,2.1-0.1,3.1-0.3c0.4-0.1,0.9,0.1,0.9,0.6l2.4,9.7c0.2,0.6-0.3,1-0.9,1h-8.5c-2.2,0-4,1.7-4,3.8v26
				c0,2,1.6,3.8,3.7,3.9c2.2,0.1,4.2-1.5,4.2-3.6v-21.8c0-0.4,0.4-0.8,0.9-0.8h11.3c0.7,0.1,3.4,0.3,4,0.1c0.2,0,0.2,0,0.3-0.1h1.5
				c2.2,0,4-1.7,4-3.8v-0.1c0.3-0.6,0.6-1.3,0.9-2v6.7c0,0.4-0.4,0.8-0.9,0.8h-13.6c-2.2,0-4,1.7-4,3.8v16.7c0,2,1.6,3.8,3.7,3.9
				c2.2,0.1,4.2-1.5,4.2-3.6v-12.4c0-0.4,0.4-0.8,0.9-0.8h8.8c0.4,0,0.9,0.4,0.9,0.8v12.2c0,2,1.6,3.8,3.7,3.9
				c2.2,0.1,4.2-1.5,4.2-3.6v-41.4C399.3-184.1,397.3-185.8,395.1-185.6z"/>
		</defs>
		<use xlink:href="#SVGID_161_"  style="overflow:visible;fill-rule:evenodd;clip-rule:evenodd;"/>
		<clipPath id="SVGID_18_">
			<use xlink:href="#SVGID_161_"  style="overflow:visible;"/>
		</clipPath>
		<g style="clip-path:url(#SVGID_18_);">
			<defs>
				<rect id="SVGID_163_" x="-250.9" y="-236.6" width="926.8" height="418.5"/>
			</defs>
			<use xlink:href="#SVGID_163_"  style="overflow:visible;"/>
			<clipPath id="SVGID_20_">
				<use xlink:href="#SVGID_163_"  style="overflow:visible;"/>
			</clipPath>
		</g>
	</g>
	<g>
		<defs>
			<path id="SVGID_165_" d="M324.4-215.2c0,4.8-4.1,8.7-9.2,8.7c-5.1,0-9.2-3.9-9.2-8.7c0-4.8,4.1-8.7,9.2-8.7
				C320.2-223.9,324.4-220,324.4-215.2"/>
		</defs>
		<use xlink:href="#SVGID_165_"  style="overflow:visible;fill-rule:evenodd;clip-rule:evenodd;"/>
		<clipPath id="SVGID_22_">
			<use xlink:href="#SVGID_165_"  style="overflow:visible;"/>
		</clipPath>
		<g class="st21">
			<defs>
				<rect id="SVGID_167_" x="-250.9" y="-232.6" width="926.8" height="418.5"/>
			</defs>
			<use xlink:href="#SVGID_167_"  style="overflow:visible;"/>
			<clipPath id="SVGID_24_">
				<use xlink:href="#SVGID_167_"  style="overflow:visible;"/>
			</clipPath>
		</g>
	</g>
	<g>
		<defs>
			<path id="SVGID_169_" d="M345.4-207.4h-13.1c-0.4,0-0.9,0.3-0.9,0.8v11c0,0,0,0-0.2,0c-6.7,3.2-11.5,1.7-14.3-0.6
				c0-0.1-0.2-0.1-0.2-0.3c-0.7-3.5-3.4-6.3-7.3-7.2c-5.2-1.1-10.4,2-11.6,6.9l-4,16.4c-0.9,3.5,3.7,39,3.7,39
				c0,2.2,1.8,4.4,4.2,4.5c2.5,0.1,4.8-1.8,4.8-4.2c0,0,5.5-32.2,6.3-35.1l2.5-10.5c0.2-0.3,0.4-0.6,0.7-0.4c2.4,1,5.1,1.7,8,1.7
				c3.4,0,7.4-0.8,11.6-2.9c0.3-0.1,0.6-0.4,0.9-0.6h8.6c0.4,0,0.9-0.3,0.9-0.8v-17C346.2-207.1,345.8-207.4,345.4-207.4z"/>
		</defs>
		<use xlink:href="#SVGID_169_"  style="overflow:visible;fill-rule:evenodd;clip-rule:evenodd;"/>
		<clipPath id="SVGID_26_">
			<use xlink:href="#SVGID_169_"  style="overflow:visible;"/>
		</clipPath>
		<g style="clip-path:url(#SVGID_26_);">
			<defs>
				<rect id="SVGID_171_" x="-250.9" y="-232.6" width="926.8" height="418.5"/>
			</defs>
			<use xlink:href="#SVGID_171_"  style="overflow:visible;"/>
			<clipPath id="SVGID_28_">
				<use xlink:href="#SVGID_171_"  style="overflow:visible;"/>
			</clipPath>
		</g>
	</g>
</g>
<g>
	<g>
		<defs>
			<path id="SVGID_173_" d="M-66.2-229.9h-35c-2.1,0-4,1.5-4.2,3.5c-0.2,2.1,1.6,3.9,3.9,3.9h1.2c0.4,0,0.7,0.3,0.7,0.7v26.7
				c0,2,1.6,3.8,3.7,3.9c2.2,0.1,4.2-1.5,4.2-3.6v-18c0-0.4,0.4-0.8,0.9-0.8h13.7c0.4,0,0.9,0.4,0.9,0.8v17.7c0,2,1.6,3.8,3.7,3.9
				c2.2,0.1,4.2-1.5,4.2-3.6v-27c0-0.4,0.3-0.7,0.7-0.7h1c2.1,0,4-1.5,4.2-3.5C-62.2-228.2-64-229.9-66.2-229.9z"/>
		</defs>
		<use xlink:href="#SVGID_173_"  style="overflow:visible;fill-rule:evenodd;clip-rule:evenodd;"/>
		<clipPath id="SVGID_30_">
			<use xlink:href="#SVGID_173_"  style="overflow:visible;"/>
		</clipPath>
		<g class="st24">
			<defs>
				<rect id="SVGID_175_" x="-676.2" y="-287" width="926.8" height="418.5"/>
			</defs>
			<use xlink:href="#SVGID_175_"  style="overflow:visible;"/>
			<clipPath id="SVGID_32_">
				<use xlink:href="#SVGID_175_"  style="overflow:visible;"/>
			</clipPath>
		</g>
	</g>
	<g>
		<defs>
			<path id="SVGID_177_" d="M-47-258.5c0,4.2-3.6,7.6-8,7.6c-4.4,0-8-3.4-8-7.6c0-4.2,3.6-7.6,8-7.6C-50.6-266.1-47-262.7-47-258.5"
				/>
		</defs>
		<use xlink:href="#SVGID_177_"  style="overflow:visible;fill-rule:evenodd;clip-rule:evenodd;"/>
		<clipPath id="SVGID_34_">
			<use xlink:href="#SVGID_177_"  style="overflow:visible;"/>
		</clipPath>
		<g class="st25">
			<defs>
				<rect id="SVGID_179_" x="-676.2" y="-290.3" width="926.8" height="418.5"/>
			</defs>
			<use xlink:href="#SVGID_179_"  style="overflow:visible;"/>
			<clipPath id="SVGID_36_">
				<use xlink:href="#SVGID_179_"  style="overflow:visible;"/>
			</clipPath>
		</g>
	</g>
	<g>
		<defs>
			<path id="SVGID_181_" d="M-30.2-240c-2.1,0.1-3.7,2-3.7,3.9v7.9c0,0.1-0.2,0.1-0.3,0l-3.6-14.5c-1-4.2-5.4-7.3-10-6.5
				c-3,0.6-5.4,2.4-6.4,4.9c-0.2,0.3-0.3,0.6-0.7,0.6c-3.1,0.8-7.4,0.6-11.8-4.2l0.3-0.4c0.4-0.6,0.3-1.4-0.4-1.8
				c-0.6-0.4-1.5-0.3-1.9,0.4l-0.3,0.6c-1-0.1-2.1,0-3,0.6c-1.6,1.1-2.1,3.1-1.2,4.8c0.2,0.1,0.2,0.4,0,0.6l-3.1,4.4
				c-0.4,0.6-0.3,1.4,0.4,1.8c0.3,0.1,0.6,0.3,0.7,0.3c0.4,0,0.9-0.1,1.2-0.6l2.5-3.5c0.2-0.3,0.7-0.3,1-0.1
				c4.3,3.8,8.8,5.2,12.8,5.2c1,0,2.1-0.1,3.1-0.3c0.4-0.1,0.9,0.1,0.9,0.6l2.4,9.7c0.2,0.6-0.3,1-0.9,1h-8.5c-2.2,0-4,1.7-4,3.8v26
				c0,2,1.6,3.8,3.7,3.9c2.2,0.1,4.2-1.5,4.2-3.6v-21.8c0-0.4,0.4-0.8,0.9-0.8h11.3c0.7,0.1,3.4,0.3,4,0.1c0.2,0,0.2,0,0.3-0.1h1.5
				c2.2,0,4-1.7,4-3.8v-0.1c0.3-0.6,0.6-1.3,0.9-2v6.7c0,0.4-0.4,0.8-0.9,0.8h-13.6c-2.2,0-4,1.7-4,3.8v16.7c0,2,1.6,3.8,3.7,3.9
				c2.2,0.1,4.2-1.5,4.2-3.6v-12.4c0-0.4,0.4-0.8,0.9-0.8h8.8c0.4,0,0.9,0.4,0.9,0.8v12.2c0,2,1.6,3.8,3.7,3.9
				c2.2,0.1,4.2-1.5,4.2-3.6v-41.4C-26-238.5-28-240.2-30.2-240z"/>
		</defs>
		<use xlink:href="#SVGID_181_"  style="overflow:visible;fill-rule:evenodd;clip-rule:evenodd;"/>
		<clipPath id="SVGID_38_">
			<use xlink:href="#SVGID_181_"  style="overflow:visible;"/>
		</clipPath>
		<g class="st27">
			<defs>
				<rect id="SVGID_183_" x="-676.2" y="-291" width="926.8" height="418.5"/>
			</defs>
			<use xlink:href="#SVGID_183_"  style="overflow:visible;"/>
			<clipPath id="SVGID_40_">
				<use xlink:href="#SVGID_183_"  style="overflow:visible;"/>
			</clipPath>
		</g>
	</g>
	<g>
		<defs>
			<path id="SVGID_185_" d="M-100.9-269.6c0,4.8-4.1,8.7-9.2,8.7c-5.1,0-9.2-3.9-9.2-8.7c0-4.8,4.1-8.7,9.2-8.7
				C-105.1-278.3-100.9-274.4-100.9-269.6"/>
		</defs>
		<use xlink:href="#SVGID_185_"  style="overflow:visible;fill-rule:evenodd;clip-rule:evenodd;"/>
		<clipPath id="SVGID_42_">
			<use xlink:href="#SVGID_185_"  style="overflow:visible;"/>
		</clipPath>
		<g style="clip-path:url(#SVGID_42_);">
			<defs>
				<rect id="SVGID_187_" x="-676.2" y="-287" width="926.8" height="418.5"/>
			</defs>
			<use xlink:href="#SVGID_187_"  style="overflow:visible;"/>
			<clipPath id="SVGID_44_">
				<use xlink:href="#SVGID_187_"  style="overflow:visible;"/>
			</clipPath>
		</g>
	</g>
	<g>
		<defs>
			<path id="SVGID_189_" d="M-80-261.8h-13.1c-0.4,0-0.9,0.3-0.9,0.8v11c0,0,0,0-0.2,0c-6.7,3.2-11.5,1.7-14.3-0.6
				c0-0.1-0.2-0.1-0.2-0.3c-0.7-3.5-3.4-6.3-7.3-7.2c-5.2-1.1-10.4,2-11.6,6.9l-4,16.4c-0.9,3.5,3.7,39,3.7,39
				c0,2.2,1.8,4.4,4.2,4.5c2.5,0.1,4.8-1.8,4.8-4.2c0,0,5.5-32.2,6.3-35.1l2.5-10.5c0.2-0.3,0.4-0.6,0.7-0.4c2.4,1,5.1,1.7,8,1.7
				c3.4,0,7.4-0.8,11.6-2.9c0.3-0.1,0.6-0.4,0.9-0.6h8.6c0.4,0,0.9-0.3,0.9-0.8v-17C-79.1-261.5-79.5-261.8-80-261.8z"/>
		</defs>
		<use xlink:href="#SVGID_189_"  style="overflow:visible;fill-rule:evenodd;clip-rule:evenodd;"/>
		<clipPath id="SVGID_46_">
			<use xlink:href="#SVGID_189_"  style="overflow:visible;"/>
		</clipPath>
		<g style="clip-path:url(#SVGID_46_);">
			<defs>
				<rect id="SVGID_191_" x="-676.2" y="-287" width="926.8" height="418.5"/>
			</defs>
			<use xlink:href="#SVGID_191_"  style="overflow:visible;"/>
			<clipPath id="SVGID_48_">
				<use xlink:href="#SVGID_191_"  style="overflow:visible;"/>
			</clipPath>
		</g>
	</g>
</g>
<g>
	<g>
		<defs>
			<path id="SVGID_229_" d="M-76.5-133.7c1.2,0,2.2-1,2.2-2.2v-13c0-1.2-1-2.2-2.2-2.2c-1.2,0-2.2,1-2.2,2.2v13
				C-78.6-134.7-77.7-133.7-76.5-133.7z"/>
		</defs>
		<use xlink:href="#SVGID_229_"  style="overflow:visible;fill-rule:evenodd;clip-rule:evenodd;"/>
		<clipPath id="SVGID_50_">
			<use xlink:href="#SVGID_229_"  style="overflow:visible;"/>
		</clipPath>
		<g class="st33">
			<defs>
				<rect id="SVGID_231_" x="-138.3" y="-151.1" width="980.1" height="407.1"/>
			</defs>
			<use xlink:href="#SVGID_231_"  style="overflow:visible;"/>
			<clipPath id="SVGID_52_">
				<use xlink:href="#SVGID_231_"  style="overflow:visible;"/>
			</clipPath>
		</g>
	</g>
	<g>
		<defs>
			<path id="SVGID_233_" d="M-91.3-130c0.4,0.7,1.1,1.1,1.9,1.1c0.4,0,0.7-0.1,1.1-0.3c1-0.6,1.4-1.9,0.8-3l-6.5-11.3
				c-0.6-1-1.9-1.4-2.9-0.8c-1,0.6-1.4,1.9-0.8,3L-91.3-130z"/>
		</defs>
		<use xlink:href="#SVGID_233_"  style="overflow:visible;fill-rule:evenodd;clip-rule:evenodd;"/>
		<clipPath id="SVGID_54_">
			<use xlink:href="#SVGID_233_"  style="overflow:visible;"/>
		</clipPath>
		<g style="clip-path:url(#SVGID_54_);">
			<defs>
				<rect id="SVGID_235_" x="-138.3" y="-151.1" width="980.1" height="407.1"/>
			</defs>
			<use xlink:href="#SVGID_235_"  style="overflow:visible;"/>
			<clipPath id="SVGID_56_">
				<use xlink:href="#SVGID_235_"  style="overflow:visible;"/>
			</clipPath>
		</g>
	</g>
	<g>
		<defs>
			<path id="SVGID_237_" d="M-56-144.3c-1-0.6-2.3-0.2-2.9,0.8l-6.5,11.3c-0.6,1-0.2,2.4,0.8,3c0.3,0.2,0.7,0.3,1.1,0.3
				c0.7,0,1.5-0.4,1.9-1.1l6.5-11.3C-54.6-142.4-55-143.7-56-144.3z"/>
		</defs>
		<use xlink:href="#SVGID_237_"  style="overflow:visible;fill-rule:evenodd;clip-rule:evenodd;"/>
		<clipPath id="SVGID_58_">
			<use xlink:href="#SVGID_237_"  style="overflow:visible;"/>
		</clipPath>
		<g class="st36">
			<defs>
				<rect id="SVGID_239_" x="-138.3" y="-151.1" width="980.1" height="407.1"/>
			</defs>
			<use xlink:href="#SVGID_239_"  style="overflow:visible;"/>
			<clipPath id="SVGID_60_">
				<use xlink:href="#SVGID_239_"  style="overflow:visible;"/>
			</clipPath>
		</g>
	</g>
</g>
<g>
	<g>
		<path class="st111" d="M45.5,45c1.2,0,2-1.4,1.8-3.2L46,32.8c-0.2-1.8-1.9-3.2-3.7-3.2H31.7c-1.8,0-3.4,1.4-3.7,3.2l-1.2,8.9
			c-0.2,1.8,0.6,3.2,1.8,3.2s2.3,1.5,2.5,3.2l1.1,15.2c0.1,1.8,1.7,3.2,3.4,3.2h2.7c1.8,0,3.3-1.5,3.4-3.2L43,48.2
			C43.1,46.4,44.3,45,45.5,45z M42.9,21.9c0,3.3-2.6,5.9-5.9,5.9s-5.9-2.7-5.9-5.9c0-3.3,2.6-5.9,5.9-5.9S42.9,18.6,42.9,21.9z"/>
		<g>
			<ellipse cx="83.5" cy="21.3" rx="5.9" ry="5.9"/>
			<path d="M93.7,41.2l-1.2-8.9c-0.2-1.8-1.9-3.3-3.7-3.3H78.1c-1.8,0-3.4,1.5-3.7,3.3l-1.2,8.9c-0.2,1.8,0.6,3.2,1.8,3.2
				s2.3,1.5,2.5,3.2l1.1,15.2c0.1,1.8,1.7,3.2,3.4,3.2h2.7c1.8,0,3.3-1.4,3.4-3.2l1.1-15.2c0.1-1.8,1.2-3.2,2.5-3.2
				C93.1,44.4,93.9,43,93.7,41.2z"/>
		</g>
		<path class="st111" d="M65.6,50.5c0.8,0,1.3-0.9,1.1-2l-0.8-5.6c-0.2-1.1-1.2-2-2.3-2h-6.7c-1.1,0-2.2,0.9-2.3,2l-0.8,5.6
			c-0.2,1.1,0.4,2,1.1,2c0.8,0,1.5,0.9,1.6,2l0.7,9.6c0.1,1.1,1.1,2,2.2,2h1.7c1.1,0,2.1-0.9,2.2-2l0.7-9.6
			C64.1,51.4,64.8,50.5,65.6,50.5z M64,35.9c0,2.1-1.7,3.8-3.7,3.8s-3.7-1.7-3.7-3.8c0-2.1,1.7-3.7,3.7-3.7S64,33.8,64,35.9z"/>
	</g>
	<g>
		<path d="M114.2,28.2c-3.4,0-6.3,2.6-6.3,5.7v22.2c3.4,1.4,5.7,4.2,5.7,7.3c-0.3,2.8-1.5,4.2-2.9,5.5l-2.3,2.4L98.2,81.8
			c-0.3,0.4-0.7,0.9-1.1,1.5c-0.2,0.4-0.5,0.8-0.6,1.3c-0.2,0.6-0.3,0.9-0.3,2.1h-4c0-1.1,0.1-2.1,0.5-3.2c0.7-2,2-3.7,2.8-4.5
			l12.3-12.4c0.7-0.8,1.2-1.9,1.2-3c0-2.5-2.2-4.6-4.8-4.6c-1.3,0-2.5,0.5-3.4,1.3L75.2,84.5c-3.9,3.8-4.1,7.6-4.1,10.7
			c0,0.4,0,0.9,0,1.3l0,8.6h21.8v-3.4c0-2.4,0.5-3.9,2.5-5.7l20.3-20.2c2.9-3.2,4.7-7.2,4.7-11.5V33.9
			C120.5,30.8,117.5,28.2,114.2,28.2z"/>
		<path d="M6.4,28.2c3.4,0,6.3,2.6,6.3,5.7v22.2c-3.4,1.4-5.7,4.2-5.7,7.3c0.3,2.8,1.5,4.2,2.9,5.5l2.3,2.4l10.2,10.6
			c0.3,0.4,0.7,0.9,1.1,1.5c0.2,0.4,0.5,0.8,0.6,1.3c0.2,0.6,0.3,0.9,0.3,2.1h4c0-1.1-0.1-2.1-0.5-3.2c-0.7-2-2-3.7-2.8-4.5
			L12.7,66.6c-0.7-0.8-1.2-1.9-1.2-3c0-2.5,2.2-4.6,4.8-4.6c1.3,0,2.5,0.5,3.4,1.3l25.5,24.2c3.9,3.8,4.1,7.6,4.1,10.7
			c0,0.4,0,0.9,0,1.3l0,8.6H27.6v-3.4c0-2.4-0.5-3.9-2.5-5.7L4.8,75.8c-2.9-3.2-4.7-7.2-4.7-11.5V33.9C0.1,30.8,3,28.2,6.4,28.2z"/>
	</g>
</g>
</svg>
