<?xml version="1.0" encoding="utf-8"?>
<!-- Generator: Adobe Illustrator 19.2.0, SVG Export Plug-In . SVG Version: 6.00 Build 0)  -->
<svg version="1.1" id="Layer_1" xmlns="http://www.w3.org/2000/svg" xmlns:xlink="http://www.w3.org/1999/xlink" x="0px" y="0px"
	 viewBox="0 0 960 254.7" style="enable-background:new 0 0 960 254.7;" xml:space="preserve">
<metadata><?xpacket begin="﻿" id="W5M0MpCehiHzreSzNTczkc9d"?>
<x:xmpmeta xmlns:x="adobe:ns:meta/" x:xmptk="Adobe XMP Core 5.6-c111 79.158366, 2015/09/25-01:12:00        ">
   <rdf:RDF xmlns:rdf="http://www.w3.org/1999/02/22-rdf-syntax-ns#">
      <rdf:Description rdf:about=""/>
   </rdf:RDF>
</x:xmpmeta>
                                                                                                    
                                                                                                    
                                                                                                    
                                                                                                    
                                                                                                    
                                                                                                    
                                                                                                    
                                                                                                    
                                                                                                    
                                                                                                    
                                                                                                    
                                                                                                    
                                                                                                    
                                                                                                    
                                                                                                    
                                                                                                    
                                                                                                    
                                                                                                    
                                                                                                    
                                                                                                    
                           
<?xpacket end="w"?></metadata>
<g>
	<path d="M150.2,117.2c0,0,7.2-7.4-13.2-15.1c0,0-3.7,11.3,0,15.1C140.7,121,150.2,117.2,150.2,117.2z"/>
	<path d="M310.8,123.5c0,0-11.1,28.5-16.5,37.5c-4.9,8.2-6.6,6.2-6.6,6.2c-3.2-4.5-4.8-8.7-5.8-12.6c1.9-3.6,13.3-25.7,9.5-32.1
		c-4.1-6.9-12.9-7.2-21-3.4c-6.3,2.9-7.1,12.8-7.3,20.7c-0.6,1.8-7.1,22.8-13.2,30.5c-6.3,8.1-8.1,6.6-8.1,6.6
		c-7.8-4.6-3.8-27.3-3.8-27.3s3.4-21.6,4.6-40.2c3.6-0.3,7.6-0.1,12,0.7l2.5-0.8c0,0,0.8-8.5-13.4-7.5c-0.2,0-0.5,0-0.7,0.1
		c0.2-6,0-11.3-0.7-14.8C239,72.1,227,74.5,227,74.5s-0.1,13.1-0.1,29.2c-7,1-12.1,2.1-12.1,2.1s-0.7,1.2-0.8,3
		c-2-1.5-4.5-2.6-6.6-2c-5.1,1.4-7.5,13.1-7.5,13.1c12.4,2,16.8-0.4,18.3-2.9c0.6,0.5,1.3,1,2.1,1.4c0,0,2.3-2.3,6.6-4.6
		c0,7.2,0,14.5-0.1,21.2c-1.1,2.2-3,6.1-5.8,12c-9.9,20.4-15.8,26.6-15.9,26.3c-1.2-4.9,5.3-33,5.3-33c0.1-0.3,0.3-1.5,0.1-2
		c0-0.1-0.4-1.5-1-2.3c-0.7-1-5.1-5.7-10.1-5.7c-0.7,0.1-1.1,0.7-1.2,1.4c0,0.2-0.2,0.9-0.5,2c-10.7,7.6-16.3,11-17.2,9.9l-1.6-2.3
		c-2.3-2.9-8.1-11.1-4.9-16.9c0.4-0.6,0.8-1.6,1.8-2.7c0.7-0.7,1.5-1.1,2.5-1.1c2-0.1,0.1,7.7-2,10.1c-0.3,0.7,0,1.2,0.8,1.5
		c0.4,0.1,2.7-1.7,4.3-3.9c1.1-1.4,1.7-3.2,1.9-4c0.4-1.2,0.3-8.1-5.2-9.9c-0.7-0.2-8.1-2.3-12.4,1.5c-1,0.9-1.8,2.3-3.3,4.7
		c-1.9,3.1-2.2,6.2-1.8,10.7c0,0.3,0.1,0.6,0.2,0.9c-1,2-3,6.1-6,12.4c-9.9,20.4-15.8,26.6-15.9,26.3c-1.2-4.9,5.3-33,5.3-33
		c0.1-0.3,0.3-1.5,0.1-2c0-0.1-0.4-1.5-1-2.3c-0.7-1-5.1-5.7-10.1-5.7c-0.7,0.1-1.1,0.7-1.2,1.4c0,0.6-2.5,7.9-3.7,15.5
		c-1.3,8.6-1.3,23.3,2.8,27.9c0.5,0.6,1.5,1.2,2.7,2.2c1.2,0.8,2.5,1.1,3.8,0.7c0.2-0.1,2.1,0.6,6.5-5.8
		c4.7-7.1,11.9-20.9,17.8-32.8c0.4,1.2,0.9,2.5,1.4,3.8l2.2,4.6c1.2,3,2.3,6,3,8.9c0.1,0.5,0.1,1.1-0.3,1.6c-1,1-1.8,2.3-2.7,4.1
		c-1.8,3.1-2.3,4.8-3.3,10.8c-0.7,10.7,4.4,11,4.9,11c0.8,0.1,8.2-0.8,12.5-5.9c4.2-4.2,7.5-13,7-19c-0.1-1.1-0.7-2.9-1.8-5.3
		c-0.4-1.1-1.1-2.5-2-4c-0.1-0.4-0.1-0.7,0.3-0.8c5.8-3.7,10.2-6.6,13.3-8.6c-0.7,2.7-1.5,5.9-1.9,9.3c-1.3,8.6-1.3,23.3,2.8,27.9
		c0.5,0.6,1.5,1.2,2.7,2.2c1.2,0.8,2.5,1.1,3.8,0.7c0.2-0.1,2.1,0.6,6.5-5.8c4.3-6.5,10.8-18.7,16.4-29.9c0,9.1,0,16,0.1,18.3
		c0.3,8.5,4,23.1,14.1,21.1c10.2-2,15.4-15.2,15.4-15.2l6.7-16c1,7.9,4.8,18.1,13,23.2c9.9,6.3,16.6-0.7,16.6-0.7
		c12.5-23.7,17.9-38.6,20.3-46.4C315.4,118.9,310.8,123.5,310.8,123.5z M167.3,176.9c-2.7,0.7-1.7-9.1,1.4-15.4c0,0,0.1-0.4,0.5-1.2
		c0.3,1.9,0.3,1.9,0.3,1.9C171.1,176.1,168.8,176.6,167.3,176.9z M286,124c4.7,2,0.3,17.5-5.4,24.6C277.5,131.2,286,124,286,124z"/>
	<path d="M568.7,123.5c-1.1,2.2-9.9,31.2-15,40.9c-0.9,1.8-6.2,12.2-12.8,7c-6.1-4.8-3.7-39.7-3.7-39.7s-2.4-6.2-14.2-1.8
		c0,0-12.9,19.8-14.1,25.4c-1.2,5.6-1.9-3.7-1.9-3.7s-0.7-22.1,10.3-23.6c0,0,3.4,0.6,8-1.9c0,0-12.6-9.2-26-5.9
		c-5.5,1.3-8.2,9.1-9.2,18.2c-6.3,10.3-18.3,29.1-21,25.5c-3.7-4.9,8.6-36.7,9-39.9c0.4-3.3-3.8-8.9-3.8-8.9
		c-14.4-6.1-23.5,12.5-23.5,12.5c0.1-11.7-5.9-16.4-5.9-16.4s-5.5-0.3-9.4,0.6c-4,0.9-10.6,13.9-10.6,13.9c-2-21.6-15.9-17-15.9-17
		s-0.2,12.6,0.4,25.7c-6,10.1-18.1,29.8-19.2,27.8c-1.4-2.7,2.2-16.7,1.1-36.9c-1.1-20.3-15.2-12-15.2-12
		c-3.6,14.7-5.7,20.5-8.5,26.3c-4.5,9.5-7.2,12.4-9.1,11.3c-3.1-1.8-2.9-6.6-2.9-10.1c-0.2-41.6-19.5-31.3-19.5-31.3l0.6,11.6
		c0,0-2.5,38.1,13.9,39.3c4.4,0.3,8.2-2,11.5-5.5c9.1-9.6,13.9-28.3,13.9-28.3v7.5c-2,26.7,4.8,35.8,13.4,35.2
		c4.1-0.3,8.6-8.4,12.8-16.3c3.2-6.1,5.6-10.9,7.3-14.5c0.7,11.9,2.3,23.1,5.4,24.2c6.9,2.4,9.5-8,9.5-8
		c0.8-33.1,15.7-39.6,15.7-39.6c-3.9,9-5.2,37-2.9,41.1c2.4,4.1,10.1-2.3,10.1-2.3s2-14,5.2-24.4c3.1-10.4,13.6-12.1,13.6-12.1
		s-6,24.7-6.3,27.9c-1.9,18.2-1.2,17,1,22.8c2.2,5.8,8.4,3.2,12,1c2.7-1.6,12.3-18,16.9-26c-0.5,11.9,1.6,24.4,4.1,26.5
		c4.9,4,18.6-3.1,20.3-8.6c1.8-5.5,8.4-22.8,8.4-22.8s-3.4,38.1,17.6,39.9c0,0,9.2,0.5,15.1-7.7c6.1-8.5,16-44.1,16-44.1
		S569.8,121.3,568.7,123.5z"/>
	<path d="M885.3,125.7c-1.1,2.2-9.9,31.2-15,40.9c-0.9,1.8-6.2,12.2-12.8,7c-6.1-4.8-3.7-39.7-3.7-39.7s-2.4-6.2-14.2-1.8
		c0,0-12.9,19.8-14.1,25.4c-1.2,5.6-1.9-3.7-1.9-3.7s-0.7-22.1,10.3-23.6c0,0,3.4,0.6,8-1.9c0,0-12.6-9.2-26-5.9
		c-6.7,1.6-9.2,12.7-9.6,24c-9.8,24.1-10.1,23.9-14.2,23.2c-4.3-0.7,1-32,1-32c5.1-20.8,9.1-51.2,9.1-51.2
		c-7.6-16.2-14.4-9.1-14.4-9.1s-3.4,25.5-5.5,48.4c-9.5,2.1-14,1.5-15.9,0.7c-0.3-3.9-1.8-9-7.2-12c-0.8-0.4-1.7-0.6-2.7-0.5
		c-1.9,0.2-5.1,0.5-6.4,1.1c-1.4,0.6-2.8,13.4,9.1,13.4c0,0-0.8,28.1-8.7,31.3c-7.8,3.2-12.9-12.4-12.9-12.4s-2.6-17.6,5.2-26.9
		c3.8-4.6,6.8-5.3,6.8-5.3s6.4-1,5.3-3.9c0,0-20.8-11.4-30,21.7c-2,6.3-7.4,21.9-12.3,27.7c-7.5,8.9-11.2,4.9-11.2,4.9
		s-6.6-7.4-3.4-22c3.2-14.6,4.4-19,12.2-19.7c0,0,1.7-1.2,2-2.6c0,0-5.3-8.7-19.9-3.2c-5.8,2.2-8.3,8.8-9.2,15.9
		c-6.7,4.5-10.3,6.4-11,5.6l-1.6-2.3c-2.3-2.9-8.1-11.1-4.9-16.9c0.4-0.6,0.8-1.6,1.8-2.7c0.7-0.7,1.5-1.1,2.5-1.1
		c2-0.1,0.1,7.7-2,10.1c-0.3,0.7,0,1.2,0.8,1.5c0.4,0.1,2.7-1.7,4.3-3.9c1.1-1.4,1.7-3.2,1.9-4c0.4-1.2,0.3-8.1-5.2-9.9
		c-0.7-0.2-8.1-2.3-12.4,1.5c-1,0.9-1.8,2.3-3.3,4.7c-1.9,3.1-2.2,6.2-1.8,10.7c0.4,2.9,1.4,6,2.9,9.4l2.2,4.6c1.2,3,2.3,6,3,8.9
		c0.1,0.5,0.1,1.1-0.3,1.6c-1,1-1.8,2.3-2.7,4.1c-1.8,3.1-2.3,4.8-3.3,10.8c-0.7,10.7,4.4,11,4.9,11c0.8,0.1,8.2-0.8,12.5-5.9
		c4.2-4.2,7.5-13,7-19c-0.1-1.1-0.7-2.9-1.8-5.3c-0.4-1.1-1.1-2.5-2-4c-0.1-0.4-0.1-0.7,0.3-0.8c3.1-2,5.7-3.7,8-5.2
		c-0.5,9.6,1.3,19.1,1.3,19.1s4.6,15.2,14,14.3c9.4-1,12.2,0,15.7-4.9c3.1-4.4,8.4-14.9,10.3-19.2c1,7.4,3.9,17.8,12,21.1
		c0,0,10.2,5.7,19.4-4.8c0,0,8.9-7.4,10.4-31c0,0,0.1-0.3,0.2-1.3c0,0,0,0,0,0c3.4,1,13.1-1.2,15.8-2c-0.3,4.1-0.6,8.1-0.8,11.8
		c-1.4,24.8,3.1,31.8,3.1,31.8s3.7,7.7,10.3,2.8c3.6-2.7,8.3-11.7,11.9-19.5c0.6,8,2.2,14.7,4,16.2c4.9,4,18.6-3.1,20.3-8.6
		c1.8-5.5,8.4-22.8,8.4-22.8s-3.4,38.1,17.6,39.9c0,0,9.2,0.5,15.1-7.7c6.1-8.5,16-44.1,16-44.1S886.3,123.4,885.3,125.7z
		 M658.9,172.7c-2.7,0.7-1.7-9.1,1.4-15.4c0,0,0.1-0.4,0.5-1.2c0.3,1.9,0.3,1.9,0.3,1.9C662.7,171.9,660.4,172.4,658.9,172.7z
		 M759.4,124.8c-4.7-1.4-6-2.7-7.1-5c-1.3-2.8-0.3-3.7-0.3-3.7C759.8,114.6,759.4,124.8,759.4,124.8z"/>
	<path d="M134.7,94.7c0.3-0.4,0.1-1-0.3-1.4c-0.1-0.1-2.6,0.5-3,1c-4.9,4.8-9.6,18.6-13.6,34.2c-3.7,14.4-9.4,32.7-9.3,32.4
		l-2.6,7.5c0,0,0-1.3-0.4-5.7c-1.1-12.1-1.4-40.1-3.1-55.8c-0.1-0.7-1.7-12.8-6.1-15l-3.8-1.9c-10.4-3.5-16.8-1.4-17.7-1.2
		c-0.8,0.3-1.1,0.8-1,1.6c0.4,1.2,1.6,2.9,1.6,2.9c1.4,2.5,2.6,5.3,3.5,8.7c1.2,4.8,9.1,61.5,12.1,69.4c0.7,2.6,1.6,4.9,2.7,6.7
		c1.5,2.3,3.4,4,5.9,4.1c4.6,0.1,7.5-3.1,8.8-5.1c4.5-7.7,14-47.2,14-47.2s1.7-8.4,6.9-23.3C131.2,100.4,134.7,94.7,134.7,94.7z"/>
	<path d="M644.2,155c-1.5,7-29,12.7-29,12.7c-1.3-7.4-1.3-18.2-0.7-29.3c8-2.1,26-4.1,26-4.1c6-5.4-5.9-10.1-5.9-10.1l-19.7,7.5
		c1.5-19.7,4.4-38.4,4.4-38.4c-0.1-0.3-0.3-0.6-0.4-0.8c6.7-2.3,23.3-3.6,23.3-3.6s11.8,1.2,10.7-2.2c-1.1-3.4-4.3-5.5-8.9-5.9
		c-3.5-0.3-21.2,4.4-28.7,6.4c-7.1-8.3-13.6-3.5-13.6-3.5s-1.2,72.1-1,81.6c0.3,9.5,7.2,16.4,9.9,13.5c2.7-2.9,38.7-12.4,38.7-12.4
		C653.6,157.8,644.2,155,644.2,155z"/>
</g>
</svg>
